CharterBT-BoldItalic.sfdir
StartChar: exclam
Encoding: 33 33 1
Width: 340
Flags: MW
HStem: -7 152<105 131.5> 198 486<114 251 114 251>
VStem: 43 151<55 83>
LayerCount: 2
Fore
SplineSet
279 555 m 2
 166 198 l 1
 114 198 l 1
 135 553 l 2
 140 641 165 684 231 684 c 0
 271 684 294 662 294 625 c 0
 294 608 288 585 279 555 c 2
127 145 m 0
 165 145 194 116 194 78 c 0
 194 32 154 -7 109 -7 c 0
 73 -7 43 22 43 60 c 0
 43 106 83 145 127 145 c 0
EndSplineSet
EndChar
StartChar: numbersign
Encoding: 35 35 3
Width: 751
Flags: MW
HStem: -23 20 221 61<57 197 57 217 284 397 57 263 486 647> 417 61<107 261 107 282 349 464 107 329 552 689> 692 18
VStem: 57 632<221 478 282 478>
LayerCount: 2
Fore
SplineSet
362 710 m 1
 425 692 l 1
 349 478 l 1
 487 478 l 1
 564 709 l 1
 628 692 l 1
 552 478 l 1
 689 478 l 1
 689 417 l 1
 532 417 l 1
 486 282 l 1
 647 282 l 1
 647 221 l 1
 465 221 l 1
 384 -23 l 1
 321 -7 l 1
 397 221 l 1
 263 221 l 1
 181 -23 l 1
 118 -7 l 1
 197 221 l 1
 57 221 l 1
 57 282 l 1
 217 282 l 1
 261 417 l 1
 107 417 l 1
 107 478 l 1
 282 478 l 1
 362 710 l 1
329 417 m 1
 284 282 l 1
 417 282 l 1
 464 417 l 1
 329 417 l 1
EndSplineSet
EndChar
StartChar: dollar
Encoding: 36 36 4
Width: 586
Flags: MW
HStem: -104 20 1 56<204 216 216 256> 615 55<327 337 337 378> 724 20<352 404 404 404>
VStem: 104 114<480 515.5> 387 116<163 197>
LayerCount: 2
Fore
SplineSet
352 744 m 1
 404 744 l 1
 390 671 l 1
 441 668 491 658 543 640 c 1
 510 479 l 1
 446 479 l 1
 450 592 l 1
 438 602 l 1
 419 609 398 613 378 615 c 1
 336 392 l 1
 447 355 503 297 503 223 c 0
 503 103 410 14 256 1 c 1
 237 -104 l 1
 184 -104 l 1
 204 1 l 1
 136 5 77 18 25 40 c 1
 58 206 l 1
 126 206 l 1
 122 87 l 1
 134 78 l 1
 163 66 191 59 216 57 c 1
 260 290 l 1
 156 329 104 385 104 460 c 0
 104 571 195 661 337 670 c 1
 352 744 l 1
327 615 m 1
 260 607 218 560 218 501 c 0
 218 459 240 429 287 410 c 1
 327 615 l 1
311 273 m 1
 269 57 l 1
 342 66 387 116 387 175 c 0
 387 219 360 255 311 273 c 1
EndSplineSet
EndChar
StartChar: percent
Encoding: 37 37 5
Width: 898
Flags: W
HStem: -12 45<625 656 625 694> 263 45<180 222 180 249> 363 44<685.5 716> 638 45<240.5 271>
VStem: 55 93<363.5 422 363.5 487> 303 97<482.5 581.5 456 583.5> 500 94<87 145.5 87 213> 749 97<249 306.5 181 307.5>
LayerCount: 2
Fore
SplineSet
265 683 m 0
 349 683 400 627 400 536 c 0
 400 376 308 263 190 263 c 0
 107 263 55 319 55 403 c 0
 55 571 146 683 265 683 c 0
681 671 m 1
 756 671 l 1
 218 0 l 1
 142 0 l 1
 681 671 l 1
255 638 m 0xff
 226 638 202 615 183 569 c 0
 161 516 148 453 148 391 c 0
 148 336 163 308 197 308 c 0
 247 308 303 409 303 556 c 0
 303 611 287 638 255 638 c 0xff
711 407 m 0
 795 407 846 352 846 261 c 0
 846 101 753 -12 635 -12 c 0
 552 -12 500 44 500 129 c 0
 500 297 592 407 711 407 c 0
700 363 m 0
 671 363 648 340 629 294 c 0
 607 242 594 177 594 114 c 0
 594 60 609 33 641 33 c 0
 671 33 694 56 714 102 c 0
 735 152 749 218 749 280 c 0
 749 335 732 363 700 363 c 0
EndSplineSet
EndChar
StartChar: ampersand
Encoding: 38 38 6
Width: 730
Flags: W
HStem: -13 82<235 236> 325 48<493 697> 629 55<313 362.5>
VStem: 19 127<158.5 201.5> 127 117<502.5 546.5> 414 114<511 569>
LayerCount: 2
Fore
SplineSet
697 373 m 1x6c
 697 324 l 1
 627 315 l 1
 593 255 552 199 504 148 c 1
 551 80 594 49 658 49 c 0
 663 49 668 50 673 50 c 1
 673 2 l 1
 614 -4 l 2
 598 -5 581 -7 564 -7 c 0
 502 -7 457 19 417 74 c 1
 347 17 272 -13 200 -13 c 0
 94 -13 19 62 19 158 c 0xd0
 19 245 78 315 190 358 c 1
 148 404 127 449 127 495 c 0
 127 598 223 684 354 684 c 0
 463 684 528 625 528 542 c 0
 528 461 461 391 338 362 c 1
 471 189 l 1
 495 211 522 248 549 301 c 1
 540 318 l 1
 493 325 l 1
 493 373 l 1
 697 373 l 1x6c
387 112 m 1xfc
 222 322 l 1
 171 289 146 248 146 195 c 0
 146 122 199 69 271 69 c 0
 311 69 351 84 387 112 c 1xfc
305 394 m 1x6c
 377 429 414 480 414 542 c 0
 414 596 385 629 340 629 c 0
 286 629 244 586 244 520 c 0
 244 485 265 443 305 394 c 1x6c
EndSplineSet
EndChar
StartChar: quotesingle
Encoding: 169 39 103
Width: 175
Flags: MW
HStem: 418 296<78 78 78 97>
VStem: 41 93<658 678>
LayerCount: 2
Fore
SplineSet
78 418 m 1
 42 642 l 2
 41 649 41 655 41 661 c 0
 41 695 58 714 87 714 c 0
 117 714 134 696 134 661 c 0
 134 655 134 648 133 642 c 2
 97 418 l 1
 78 418 l 1
EndSplineSet
EndChar
StartChar: parenleft
Encoding: 40 40 8
Width: 420
Flags: MW
HStem: -142 51<296 306> 667 51<449 458>
VStem: 66 113<56.5 149 49.5 188.5>
LayerCount: 2
Fore
SplineSet
458 718 m 1
 449 667 l 1
 398 662 349 634 313 587 c 0
 276 539 248 482 229 414 c 0
 193 287 179 185 179 113 c 0
 179 -14 225 -84 306 -91 c 1
 296 -142 l 1
 152 -140 66 -34 66 147 c 0
 66 230 83 328 120 433 c 0
 147 511 189 576 247 630 c 0
 306 686 378 716 458 718 c 1
EndSplineSet
EndChar
StartChar: parenright
Encoding: 41 41 9
Width: 420
Flags: MW
HStem: -142 51<-61 -52> 667 51<91 101>
VStem: 218 113<432.5 522 392.5 528>
LayerCount: 2
Fore
SplineSet
101 718 m 1
 244 715 331 611 331 433 c 0
 331 352 314 256 280 153 c 0
 253 71 210 2 150 -54 c 0
 90 -110 19 -140 -61 -142 c 1
 -52 -91 l 1
 -1 -87 47 -59 84 -11 c 0
 123 39 152 99 171 171 c 0
 205 298 218 399 218 466 c 0
 218 590 171 660 91 667 c 1
 101 718 l 1
EndSplineSet
EndChar
StartChar: asterisk
Encoding: 42 42 10
Width: 500
Flags: MW
VStem: 97 393<571 572>
LayerCount: 2
Fore
SplineSet
320 718 m 1
 357 657 l 1
 294 532 l 1
 278 532 l 1
 262 657 l 1
 320 718 l 1
423 598 m 1
 490 572 l 1
 435 508 l 1
 304 506 l 1
 303 522 l 1
 423 598 l 1
295 493 m 1
 386 415 l 1
 369 338 l 1
 299 360 l 1
 280 484 l 1
 295 493 l 1
262 493 m 1
 273 484 l 1
 209 359 l 1
 131 338 l 1
 143 415 l 1
 262 493 l 1
174 598 m 1
 266 522 l 1
 258 507 l 1
 128 508 l 1
 97 571 l 1
 174 598 l 1
EndSplineSet
EndChar
StartChar: comma
Encoding: 44 44 12
Width: 292
Flags: MW
HStem: -175 304<-57 117.5>
VStem: 12 156<37 69>
LayerCount: 2
Fore
SplineSet
-57 -175 m 1
 -49 -129 l 1
 28 -115 73 -69 84 7 c 1
 23 7 l 1
 15 18 12 30 12 44 c 0
 12 94 47 129 94 129 c 0
 141 129 168 100 168 52 c 0
 168 -53 76 -159 -57 -175 c 1
EndSplineSet
EndChar
StartChar: hyphen
Encoding: 45 45 13
Width: 320
Flags: MW
HStem: 192 98<28 264 10 281>
VStem: 10 271<192 290>
LayerCount: 2
Fore
SplineSet
28 290 m 1
 281 290 l 1
 264 192 l 1
 10 192 l 1
 28 290 l 1
EndSplineSet
EndChar
StartChar: period
Encoding: 46 46 14
Width: 294
Flags: MW
HStem: -6 155<77.5 119>
VStem: 22 152<49.5 92.5>
LayerCount: 2
Fore
SplineSet
98 149 m 0
 141 149 174 115 174 71 c 0
 174 27 140 -6 98 -6 c 0
 57 -6 22 28 22 71 c 0
 22 114 56 149 98 149 c 0
EndSplineSet
EndChar
StartChar: slash
Encoding: 47 47 15
Width: 481
Flags: MW
HStem: -93 764<-119 525 -119 525>
VStem: -119 644
LayerCount: 2
Fore
SplineSet
443 671 m 1
 525 671 l 1
 -36 -93 l 1
 -119 -93 l 1
 443 671 l 1
EndSplineSet
EndChar
StartChar: zero
Encoding: 48 48 16
Width: 586
Flags: MW
HStem: -12 59<216 269.5 216 278.5> 625 58<319 373>
VStem: 29 128<147.5 232.5 134 277> 428 127<439 519 385 540>
LayerCount: 2
Fore
SplineSet
352 683 m 0
 479 683 555 594 555 444 c 0
 555 326 524 216 471 131 c 0
 411 36 329 -12 228 -12 c 0
 111 -12 29 80 29 215 c 0
 29 339 61 453 117 541 c 0
 175 633 262 683 352 683 c 0
346 625 m 0
 292 625 253 584 219 501 c 0
 182 409 157 288 157 177 c 0
 157 91 188 47 244 47 c 0
 295 47 334 87 367 168 c 0
 404 260 428 380 428 498 c 0
 428 582 400 625 346 625 c 0
EndSplineSet
EndChar
StartChar: one
Encoding: 49 49 17
Width: 586
Flags: MW
HStem: 0 50<79 425> 561 49<142 142> 661 20<377 437 437 437>
VStem: 79 346<0 50 0 52 0 52>
LayerCount: 2
Fore
SplineSet
377 681 m 1
 437 681 l 1
 322 72 l 1
 332 56 l 1
 425 50 l 1
 425 0 l 1
 79 0 l 1
 79 52 l 1
 185 58 l 1
 201 75 l 1
 295 574 l 1
 284 579 l 1
 142 561 l 1
 142 610 l 1
 377 681 l 1
EndSplineSet
EndChar
StartChar: two
Encoding: 50 50 18
Width: 586
Flags: MW
HStem: 0 101<132 411 132 475> 618 64<296 328.5>
VStem: 401 130<447.5 545.5>
LayerCount: 2
Fore
SplineSet
132 101 m 1
 411 101 l 1
 444 191 l 1
 510 191 l 1
 475 0 l 1
 -3 0 l 1
 3 75 l 1
 262 254 401 373 401 513 c 0
 401 578 361 618 296 618 c 0
 279 618 259 615 238 609 c 1
 213 473 l 1
 194 463 174 458 155 458 c 0
 116 458 94 482 94 519 c 0
 94 546 108 576 135 603 c 0
 184 652 257 682 335 682 c 0
 455 682 531 613 531 513 c 0
 531 382 397 254 132 101 c 1
EndSplineSet
EndChar
StartChar: three
Encoding: 51 51 19
Width: 586
Flags: W
HStem: -11 58<190 242> 622 61<287 328>
VStem: 366 139<187.5 242> 402 137<496 553>
LayerCount: 2
Fore
SplineSet
339 357 m 1x50
 450 350 505 303 505 215 c 0
 505 160 473 101 414 56 c 0
 358 14 282 -11 202 -11 c 0
 85 -11 12 47 12 108 c 0
 12 150 43 182 83 182 c 0
 96 182 111 178 129 171 c 1
 141 63 l 1
 163 53 182 47 198 47 c 0
 298 47 366 114 366 209 c 0xa0
 366 275 325 313 249 313 c 0
 231 313 210 311 186 307 c 1
 198 380 l 1
 207 379 216 379 224 379 c 0
 335 379 402 439 402 524 c 0
 402 582 360 622 296 622 c 0
 278 622 258 617 238 609 c 1
 218 491 l 1
 196 482 179 476 164 476 c 0
 128 476 103 501 103 536 c 0
 103 607 202 683 348 683 c 0
 468 683 539 619 539 537 c 0
 539 455 468 383 339 357 c 1x50
EndSplineSet
EndChar
StartChar: four
Encoding: 52 52 20
Width: 586
Flags: MW
HStem: -32 20 180 79<14 14 107 309 -2 14 439 536> 656 20<420 518 518 518>
VStem: -2 552<180 259>
LayerCount: 2
Fore
SplineSet
420 676 m 1
 518 676 l 1
 439 259 l 1
 550 259 l 1
 536 180 l 1
 425 180 l 1
 384 -32 l 1
 270 -32 l 1
 309 180 l 1
 -2 180 l 1
 14 259 l 1
 420 676 l 1
381 543 m 1
 107 259 l 1
 325 259 l 1
 381 543 l 1
EndSplineSet
EndChar
StartChar: five
Encoding: 53 53 21
Width: 586
Flags: MW
HStem: -10 57<186.5 249 186.5 283.5> 343 77<199 370.5> 570 101<224 532 224 224>
VStem: 373 131<183 256.5>
LayerCount: 2
Fore
SplineSet
166 671 m 1
 551 671 l 1
 532 570 l 1
 224 570 l 1
 189 400 l 1
 239 414 279 420 310 420 c 0
 431 420 504 354 504 256 c 0
 504 110 373 -10 194 -10 c 0
 87 -10 20 43 20 104 c 0
 20 143 49 173 92 173 c 0
 106 173 119 170 132 164 c 1
 147 56 l 1
 161 50 177 47 196 47 c 0
 302 47 373 124 373 218 c 0
 373 295 317 343 217 343 c 0
 181 343 142 339 100 334 c 1
 166 671 l 1
EndSplineSet
EndChar
StartChar: six
Encoding: 54 54 22
Width: 586
Flags: MW
HStem: -12 63<234 301.5 234 325.5> 377 79<263.5 407> 699 20<508 508>
VStem: 31 130<160.5 237 160.5 298.5> 402 129<193 284>
LayerCount: 2
Fore
SplineSet
508 719 m 1
 516 656 l 1
 357 641 238 548 194 405 c 1
 247 439 300 456 353 456 c 0
 461 456 531 384 531 268 c 0
 531 118 406 -12 245 -12 c 0
 115 -12 31 75 31 226 c 0
 31 371 99 510 217 605 c 0
 295 668 391 706 508 719 c 1
180 349 m 1
 168 308 161 261 161 213 c 0
 161 108 202 51 266 51 c 0
 337 51 402 130 402 238 c 0
 402 330 361 377 280 377 c 0
 247 377 214 368 180 349 c 1
EndSplineSet
EndChar
StartChar: seven
Encoding: 55 55 23
Width: 586
Flags: MW
HStem: -34 20 563 108<197 483 197 197>
VStem: 74 538
LayerCount: 2
Fore
SplineSet
136 671 m 1
 612 671 l 1
 602 610 l 1
 185 -7 l 1
 183 -34 l 1
 74 -34 l 1
 483 563 l 1
 197 563 l 1
 163 464 l 1
 97 464 l 1
 136 671 l 1
EndSplineSet
EndChar
StartChar: eight
Encoding: 56 56 24
Width: 586
Flags: W
HStem: -18 61<230 305 230 329.5> 628 58<309 371>
VStem: 24 120<128.5 194> 102 124<482 533> 397 128<144.5 201.5> 436 113<497 557>
LayerCount: 2
Fore
SplineSet
354 379 m 1x54
 407 413 436 468 436 526 c 0
 436 588 399 628 343 628 c 0
 275 628 226 579 226 510 c 0
 226 454 267 421 354 379 c 1x54
399 358 m 1
 484 316 525 272 525 206 c 0
 525 83 412 -18 247 -18 c 0
 104 -18 24 51 24 155 c 0xa8
 24 233 82 302 189 338 c 1
 130 370 102 415 102 475 c 0
 102 591 208 686 355 686 c 0
 478 686 549 625 549 536 c 0
 549 457 498 395 399 358 c 1
230 313 m 1xa8
 172 274 144 226 144 166 c 0
 144 91 193 43 267 43 c 0
 343 43 397 95 397 169 c 0
 397 234 341 262 230 313 c 1xa8
EndSplineSet
EndChar
StartChar: nine
Encoding: 57 57 25
Width: 586
Flags: MW
HStem: -58 20 223 76<177.5 315.5> 624 60<306.5 352>
VStem: 48 132<391.5 449> 427 130<450 518>
LayerCount: 2
Fore
SplineSet
408 333 m 1
 422 388 427 433 427 467 c 0
 427 569 383 624 321 624 c 0
 251 624 180 543 180 434 c 0
 180 349 225 299 298 299 c 0
 333 299 370 310 408 333 c 1
72 -58 m 1
 56 -2 l 1
 211 45 321 136 387 270 c 1
 323 239 272 223 233 223 c 0
 122 223 48 297 48 407 c 0
 48 491 92 575 168 629 c 0
 219 665 275 684 338 684 c 0
 478 684 557 603 557 464 c 0
 557 241 382 31 72 -58 c 1
EndSplineSet
EndChar
StartChar: colon
Encoding: 58 58 26
Width: 346
Flags: W
HStem: -6 155<104.5 146> 332 154<165.5 206 164.5 207>
VStem: 50 152<49.5 92.5> 110 152<387.5 430.5>
LayerCount: 2
Fore
SplineSet
185 486 m 0x50
 227 486 262 452 262 409 c 0
 262 366 228 332 186 332 c 0
 145 332 110 366 110 409 c 0
 110 452 144 486 185 486 c 0x50
125 149 m 0xa0
 167 149 202 115 202 71 c 0
 202 28 167 -6 125 -6 c 0
 84 -6 50 28 50 71 c 0
 50 114 83 149 125 149 c 0xa0
EndSplineSet
EndChar
StartChar: semicolon
Encoding: 59 59 27
Width: 346
Flags: W
HStem: -175 304<-24 149.5> 332 154<165.5 206 164.5 207>
VStem: 44 157<38 69.5> 110 152<387.5 430.5>
LayerCount: 2
Fore
SplineSet
185 486 m 0x50
 227 486 262 452 262 409 c 0
 262 366 228 332 186 332 c 0
 145 332 110 366 110 409 c 0
 110 452 144 486 185 486 c 0x50
-24 -175 m 1xa0
 -16 -129 l 1
 61 -115 106 -68 116 7 c 1
 56 7 l 1
 48 18 44 31 44 45 c 0
 44 94 80 129 126 129 c 0
 173 129 201 99 201 52 c 0
 201 -52 109 -159 -24 -175 c 1xa0
EndSplineSet
EndChar
StartChar: equal
Encoding: 61 61 29
Width: 833
Flags: MW
HStem: 157 81<124 709 124 709> 358 82<124 709 124 709>
VStem: 124 585<157 238 157 238 358 440 157 440>
LayerCount: 2
Fore
SplineSet
709 440 m 1
 709 358 l 1
 124 358 l 1
 124 440 l 1
 709 440 l 1
709 238 m 1
 709 157 l 1
 124 157 l 1
 124 238 l 1
 709 238 l 1
EndSplineSet
EndChar
StartChar: question
Encoding: 63 63 31
Width: 492
Flags: MW
HStem: -7 152<136 161.5> 625 58<229 232 229 229.5>
VStem: 74 150<55.5 82> 341 129<485 559.5>
LayerCount: 2
Fore
SplineSet
218 284 m 1
 201 193 l 1
 136 193 l 1
 161 328 l 1
 278 366 341 441 341 529 c 0
 341 590 303 625 232 625 c 0
 231 625 230 625 229 625 c 2
 163 512 l 1
 156 511 149 511 143 511 c 0
 101 511 79 528 79 560 c 0
 79 623 157 683 279 683 c 0
 399 683 470 624 470 529 c 0
 470 422 385 335 218 284 c 1
158 145 m 0
 196 145 224 116 224 78 c 0
 224 33 185 -7 138 -7 c 0
 104 -7 74 22 74 59 c 0
 74 105 114 145 158 145 c 0
EndSplineSet
EndChar
StartChar: at
Encoding: 64 64 32
Width: 936
Flags: MW
HStem: -153 55<421 524> 57 70<360.5 466.5> 444 48<485.5 528.5> 643 50<482.5 620.5>
VStem: 76 76<187 312.5> 272 104<198.5 248.5> 820 51<336 453>
LayerCount: 2
Fore
SplineSet
545 442 m 1
 538 443 532 444 525 444 c 0
 443 444 376 356 376 233 c 0
 376 164 402 127 450 127 c 0
 483 127 514 148 545 190 c 1
 582 389 l 1
 545 442 l 1
542 135 m 1
 490 83 443 57 397 57 c 0
 324 57 272 118 272 217 c 0
 272 280 291 339 327 388 c 0
 376 454 450 492 521 492 c 0
 553 492 585 483 619 465 c 1
 637 488 l 1
 705 488 l 1
 693 458 687 423 678 384 c 2
 641 214 l 2
 636 190 632 169 632 152 c 0
 632 133 648 118 668 118 c 0
 695 118 726 135 753 169 c 0
 795 222 820 295 820 375 c 0
 820 531 707 643 534 643 c 0
 431 643 343 610 274 546 c 0
 192 470 152 375 152 259 c 0
 152 44 293 -98 504 -98 c 0
 592 -98 680 -74 764 -26 c 1
 781 -65 l 1
 675 -124 571 -153 477 -153 c 0
 365 -153 265 -114 188 -40 c 0
 114 31 76 128 76 246 c 0
 76 379 125 490 221 578 c 0
 301 651 412 693 534 693 c 0
 737 693 871 562 871 373 c 0
 871 299 852 233 815 176 c 0
 765 99 688 54 622 54 c 0
 569 54 542 81 542 135 c 1
EndSplineSet
EndChar
StartChar: A
Encoding: 65 65 33
Width: 634
Flags: MW
HStem: 0 49<-68 147> 236 55<200 383 200 393 170 383> 657 20<339 442 442 442>
VStem: -68 680<0 48 48 48>
LayerCount: 2
Fore
SplineSet
339 677 m 1
 442 677 l 1
 544 69 l 1
 554 56 l 1
 612 49 l 1
 612 0 l 1
 349 0 l 1
 349 49 l 1
 410 55 l 1
 421 70 l 1
 393 236 l 1
 170 236 l 1
 78 68 l 1
 88 53 l 1
 147 49 l 1
 147 0 l 1
 -68 0 l 1
 -68 48 l 1
 -12 56 l 1
 339 677 l 1
342 551 m 1
 200 291 l 1
 383 291 l 1
 342 551 l 1
EndSplineSet
EndChar
StartChar: B
Encoding: 66 66 34
Width: 628
Flags: W
HStem: 0 53<226.5 275> 321 52<274.5 329 269.5 330> 620 51<316 362.5>
VStem: 423 138<162.5 252.5> 443 136<499.5 559>
LayerCount: 2
Fore
SplineSet
82 671 m 1xf0
 382 671 l 2
 514 671 579 630 579 544 c 0x68
 579 455 520 388 406 358 c 1
 508 353 561 305 561 220 c 0
 561 82 462 0 275 0 c 2
 -23 0 l 1
 -23 49 l 1
 41 54 l 1
 56 69 l 1
 157 605 l 1
 146 619 l 1
 82 624 l 1
 82 671 l 1xf0
239 375 m 1xf8
 252 374 264 373 275 373 c 0
 383 373 443 431 443 528 c 0
 443 590 403 620 322 620 c 0
 310 620 298 619 284 618 c 1
 239 375 l 1xf8
180 56 m 1xf0
 199 54 218 53 235 53 c 0
 360 53 423 108 423 217 c 0
 423 288 377 321 283 321 c 0
 266 321 249 320 230 318 c 1
 180 56 l 1xf0
EndSplineSet
EndChar
StartChar: C
Encoding: 67 67 35
Width: 625
Flags: MW
HStem: -13 60<310 354> 622 62<425.5 471.5>
VStem: 37 139<195 320>
LayerCount: 2
Fore
SplineSet
636 650 m 1
 605 481 l 1
 539 481 l 1
 538 590 l 1
 528 608 l 1
 503 617 481 622 462 622 c 0
 389 622 328 597 281 549 c 0
 216 483 176 381 176 263 c 0
 176 127 250 47 370 47 c 0
 387 47 406 49 427 54 c 1
 446 72 l 1
 492 196 l 1
 559 196 l 1
 527 23 l 1
 456 -1 386 -13 322 -13 c 0
 150 -13 37 100 37 272 c 0
 37 368 68 457 131 537 c 0
 203 628 319 684 440 684 c 0
 505 684 569 672 636 650 c 1
EndSplineSet
EndChar
StartChar: D
Encoding: 68 68 36
Width: 702
Flags: MW
HStem: 0 57<181 222 222 224> 615 56<285 285 285 339>
VStem: 519 141<369 481>
LayerCount: 2
Fore
SplineSet
82 671 m 1
 352 671 l 2
 555 671 660 581 660 416 c 0
 660 299 615 188 536 108 c 0
 460 32 360 0 224 0 c 2
 -25 0 l 1
 -25 49 l 1
 41 54 l 1
 55 69 l 1
 156 603 l 1
 146 618 l 1
 82 623 l 1
 82 671 l 1
285 615 m 1
 181 57 l 1
 222 57 l 2
 321 57 391 88 440 155 c 0
 488 221 519 320 519 418 c 0
 519 544 453 615 339 615 c 2
 285 615 l 1
EndSplineSet
EndChar
StartChar: E
Encoding: 69 69 37
Width: 581
Flags: MW
HStem: 0 58<180 406 180 491> 319 56<241 351 230 363> 615 56<286 474 286 286>
VStem: -22 602
LayerCount: 2
Fore
SplineSet
85 671 m 1
 580 671 l 1
 550 515 l 1
 486 515 l 1
 485 600 l 1
 474 615 l 1
 286 615 l 1
 241 375 l 1
 363 375 l 1
 378 389 l 1
 403 463 l 1
 460 463 l 1
 416 230 l 1
 362 230 l 1
 364 305 l 1
 351 319 l 1
 230 319 l 1
 180 58 l 1
 406 58 l 1
 420 72 l 1
 458 179 l 1
 524 179 l 1
 491 0 l 1
 -22 0 l 1
 -22 48 l 1
 43 54 l 1
 57 69 l 1
 158 601 l 1
 149 617 l 1
 85 622 l 1
 85 671 l 1
EndSplineSet
EndChar
StartChar: F
Encoding: 70 70 38
Width: 539
Flags: MW
HStem: 0 50<-23 261> 306 58<237 345 227 356> 614 57<285 461 285 285>
VStem: -23 592
LayerCount: 2
Fore
SplineSet
83 671 m 1
 569 671 l 1
 536 503 l 1
 473 503 l 1
 471 601 l 1
 461 614 l 1
 285 614 l 1
 237 364 l 1
 356 364 l 1
 374 376 l 1
 400 451 l 1
 457 451 l 1
 412 216 l 1
 357 216 l 1
 359 294 l 1
 345 306 l 1
 227 306 l 1
 182 70 l 1
 194 55 l 1
 261 50 l 1
 257 0 l 1
 -23 0 l 1
 -23 48 l 1
 43 55 l 1
 56 69 l 1
 158 605 l 1
 148 618 l 1
 83 623 l 1
 83 671 l 1
EndSplineSet
EndChar
StartChar: G
Encoding: 71 71 39
Width: 693
Flags: MW
HStem: -12 63<314.5 359.5> 281 49<388 671> 623 62<439.5 486.5>
VStem: 38 139<200.5 326.5 200.5 337.5>
LayerCount: 2
Fore
SplineSet
657 652 m 1
 626 481 l 1
 554 481 l 1
 556 592 l 1
 544 611 l 1
 519 619 497 623 476 623 c 0
 403 623 341 599 293 556 c 0
 220 490 177 386 177 267 c 0
 177 134 253 51 376 51 c 0
 389 51 406 52 429 54 c 1
 467 261 l 1
 456 275 l 1
 388 281 l 1
 388 330 l 1
 671 330 l 1
 671 282 l 1
 608 276 l 1
 593 262 l 1
 548 30 l 1
 468 2 393 -12 326 -12 c 0
 149 -12 38 99 38 270 c 0
 38 405 98 526 202 602 c 0
 277 656 365 685 462 685 c 0
 531 685 598 674 657 652 c 1
EndSplineSet
EndChar
StartChar: H
Encoding: 72 72 40
Width: 747
Flags: MW
HStem: 0 49<-25 256 -25 -25> 321 60<240 508 228 520> 624 47<489 489>
VStem: -25 792<0 671 49 671>
LayerCount: 2
Fore
SplineSet
84 671 m 1
 360 671 l 1
 360 623 l 1
 295 618 l 1
 282 605 l 1
 240 381 l 1
 520 381 l 1
 562 603 l 1
 549 618 l 1
 489 624 l 1
 489 671 l 1
 767 671 l 1
 767 623 l 1
 701 618 l 1
 688 605 l 1
 587 70 l 1
 596 55 l 1
 660 48 l 1
 660 0 l 1
 383 0 l 1
 383 49 l 1
 446 55 l 1
 462 70 l 1
 508 321 l 1
 228 321 l 1
 181 70 l 1
 192 53 l 1
 256 49 l 1
 256 0 l 1
 -25 0 l 1
 -25 49 l 1
 39 54 l 1
 55 70 l 1
 156 603 l 1
 146 618 l 1
 84 622 l 1
 84 671 l 1
EndSplineSet
EndChar
StartChar: I
Encoding: 73 73 41
Width: 353
Flags: MW
HStem: 0 49<-20 263 -20 -20> 623 48<87 369 87 369>
VStem: -20 389
LayerCount: 2
Fore
SplineSet
87 671 m 1
 369 671 l 1
 369 623 l 1
 303 619 l 1
 287 605 l 1
 186 67 l 1
 198 53 l 1
 263 49 l 1
 263 0 l 1
 -20 0 l 1
 -20 49 l 1
 46 54 l 1
 61 69 l 1
 162 605 l 1
 152 619 l 1
 87 623 l 1
 87 671 l 1
EndSplineSet
EndChar
StartChar: J
Encoding: 74 74 42
Width: 474
Flags: MW
HStem: -13 57<74 76 76 129.5 74 175> 623 48<214 496 214 496>
VStem: -45 541
LayerCount: 2
Fore
SplineSet
214 671 m 1
 496 671 l 1
 496 623 l 1
 429 617 l 1
 415 601 l 1
 358 268 l 2
 326 79 248 -13 102 -13 c 0
 46 -13 -3 -4 -45 14 c 1
 -11 192 l 1
 60 192 l 1
 61 56 l 1
 74 44 l 2
 75 44 75 44 76 44 c 0
 183 44 204 118 231 270 c 2
 291 604 l 1
 281 619 l 1
 214 623 l 1
 214 671 l 1
EndSplineSet
EndChar
StartChar: K
Encoding: 75 75 43
Width: 653
Flags: MW
HStem: 0 49<-26 253 -26 -26> 293 50<231 261 231 284 221 261> 624 47<81 360 81 360>
VStem: -26 720<0 671 49 671>
LayerCount: 2
Fore
SplineSet
81 671 m 1
 360 671 l 1
 360 624 l 1
 294 619 l 1
 281 605 l 1
 231 343 l 1
 261 343 l 1
 512 601 l 1
 506 617 l 1
 444 622 l 1
 444 671 l 1
 694 671 l 1
 694 622 l 1
 614 614 l 1
 380 377 l 1
 508 121 l 2
 534 69 555 47 616 47 c 0
 623 47 630 48 637 48 c 1
 637 1 l 1
 580 -3 541 -7 518 -7 c 0
 436 -7 412 27 375 103 c 2
 284 293 l 1
 221 293 l 1
 180 69 l 1
 191 53 l 1
 253 49 l 1
 253 0 l 1
 -26 0 l 1
 -26 49 l 1
 38 54 l 1
 53 69 l 1
 154 605 l 1
 144 619 l 1
 81 624 l 1
 81 671 l 1
EndSplineSet
EndChar
StartChar: M
Encoding: 77 77 45
Width: 894
Flags: MW
HStem: 0 49<-24 199 -24 -24> 623 48<85 343>
VStem: -24 936<0 671 49 671>
LayerCount: 2
Fore
SplineSet
85 671 m 1
 343 671 l 1
 343 641 l 1
 417 178 l 1
 661 644 l 1
 661 671 l 1
 912 671 l 1
 912 622 l 1
 848 617 l 1
 833 603 l 1
 737 69 l 1
 747 54 l 1
 809 48 l 1
 809 0 l 1
 539 0 l 1
 539 50 l 1
 605 55 l 1
 619 69 l 1
 715 607 l 1
 398 0 l 1
 326 0 l 1
 231 602 l 1
 127 68 l 1
 139 54 l 1
 199 49 l 1
 199 0 l 1
 -24 0 l 1
 -24 49 l 1
 40 56 l 1
 55 71 l 1
 160 602 l 1
 151 618 l 1
 85 623 l 1
 85 671 l 1
EndSplineSet
EndChar
StartChar: N
Encoding: 78 78 46
Width: 712
Flags: MW
HStem: 0 50<-26 202 -26 -26> 624 47<80 301>
VStem: -26 769<0 671 50 671>
LayerCount: 2
Fore
SplineSet
80 671 m 1
 301 671 l 1
 301 647 l 1
 506 162 l 1
 591 605 l 1
 579 618 l 1
 514 625 l 1
 514 671 l 1
 743 671 l 1
 743 624 l 1
 679 619 l 1
 663 606 l 1
 550 0 l 1
 447 0 l 1
 217 542 l 1
 127 72 l 1
 136 55 l 1
 202 49 l 1
 202 0 l 1
 -26 0 l 1
 -26 50 l 1
 39 55 l 1
 53 70 l 1
 155 605 l 1
 144 619 l 1
 80 624 l 1
 80 671 l 1
EndSplineSet
EndChar
StartChar: O
Encoding: 79 79 47
Width: 729
Flags: MW
HStem: -13 61<281 353.5 281 369.5> 624 60<373 447.5>
VStem: 38 138<191 302.5 191 316.5> 549 141<367.5 482.5>
LayerCount: 2
Fore
SplineSet
412 684 m 0
 579 684 690 573 690 408 c 0
 690 305 657 207 598 130 c 0
 527 38 426 -13 313 -13 c 0
 148 -13 38 98 38 265 c 0
 38 368 70 464 130 543 c 0
 197 632 302 684 412 684 c 0
549 416 m 0
 549 549 492 624 403 624 c 0
 343 624 288 586 244 512 c 0
 202 443 176 349 176 256 c 0
 176 126 238 48 324 48 c 0
 383 48 440 86 485 161 c 0
 524 226 549 319 549 416 c 0
EndSplineSet
EndChar
StartChar: P
Encoding: 80 80 48
Width: 581
Flags: MW
HStem: 0 49<-24 256 -24 -24> 248 57<271.5 316 251 374.5> 616 55<305 342 342 355.5>
VStem: 446 137<437 537.5>
LayerCount: 2
Fore
SplineSet
84 671 m 1
 342 671 l 2
 396 671 444 670 491 650 c 0
 547 626 583 571 583 504 c 0
 583 356 469 248 280 248 c 0
 263 248 241 248 215 250 c 1
 181 70 l 1
 190 53 l 1
 256 49 l 1
 256 0 l 1
 -24 0 l 1
 -24 49 l 1
 40 54 l 1
 55 68 l 1
 156 602 l 1
 146 619 l 1
 84 624 l 1
 84 671 l 1
284 615 m 1
 225 306 l 1
 236 305 246 305 256 305 c 0
 376 305 446 377 446 497 c 0
 446 578 402 616 309 616 c 0
 301 616 293 616 284 615 c 1
EndSplineSet
EndChar
StartChar: Q
Encoding: 81 81 49
Width: 729
Flags: MW
HStem: -164 73<488 615.5> -11 66<288 313.5> 617 67<373.5 440.5>
VStem: 36 142<218 291 203 318.5> 546 143<345 469.5>
LayerCount: 2
Fore
SplineSet
704 -70 m 1
 704 -116 l 1
 632 -147 575 -164 529 -164 c 0
 447 -164 391 -115 343 -10 c 1
 331 -11 319 -11 308 -11 c 0
 247 -11 196 2 155 32 c 0
 79 87 36 170 36 266 c 0
 36 371 75 476 143 557 c 0
 211 638 309 684 414 684 c 0
 578 684 689 572 689 409 c 0
 689 243 611 105 472 29 c 1
 512 -54 543 -91 605 -91 c 0
 626 -91 660 -85 704 -70 c 1
178 271 m 0
 178 135 243 55 333 55 c 0
 379 55 420 79 459 125 c 0
 509 184 546 288 546 402 c 0
 546 537 484 617 397 617 c 0
 350 617 309 593 269 546 c 0
 243 515 218 468 200 407 c 0
 185 356 178 311 178 271 c 0
EndSplineSet
EndChar
StartChar: R
Encoding: 82 82 50
Width: 645
Flags: MW
HStem: 0 47 295 56<226 324 226 324> 615 56<287 291>
VStem: 448 138<475.5 547.5>
LayerCount: 2
Fore
SplineSet
82 671 m 1
 372 671 l 2
 516 671 586 627 586 527 c 0
 586 424 510 347 375 326 c 1
 463 308 483 247 510 150 c 0
 531 74 544 47 619 47 c 0
 623 47 628 47 632 47 c 1
 632 1 l 1
 596 -4 565 -6 540 -6 c 0
 446 -6 406 35 379 137 c 0
 365 190 364 238 329 268 c 0
 306 287 277 295 239 295 c 0
 235 295 230 295 226 295 c 2
 183 68 l 1
 192 54 l 1
 259 49 l 1
 259 0 l 1
 -22 0 l 1
 -22 48 l 1
 41 54 l 1
 56 67 l 1
 158 603 l 1
 147 618 l 1
 82 623 l 1
 82 671 l 1
237 352 m 1
 247 351 256 351 266 351 c 0
 382 351 448 414 448 511 c 0
 448 584 404 616 309 616 c 0
 302 616 295 615 287 615 c 1
 237 352 l 1
EndSplineSet
EndChar
StartChar: S
Encoding: 83 83 51
Width: 553
Flags: MW
HStem: -7 65<197.5 256 197.5 291> 624 59<305.5 358.5>
VStem: 89 119<485 535> 354 125<154 187.5>
LayerCount: 2
Fore
SplineSet
23 45 m 1
 50 207 l 1
 116 207 l 1
 115 88 l 1
 122 78 l 1
 152 65 182 58 213 58 c 0
 299 58 354 110 354 178 c 0
 354 197 345 219 327 241 c 0
 309 264 263 284 202 320 c 0
 125 366 89 403 89 475 c 0
 89 595 191 683 347 683 c 0
 397 683 451 674 509 656 c 1
 482 487 l 1
 422 487 l 1
 424 597 l 1
 416 607 l 1
 394 619 371 624 346 624 c 0
 265 624 208 574 208 513 c 0
 208 457 255 433 334 388 c 0
 426 335 479 302 479 215 c 0
 479 93 370 -7 212 -7 c 0
 145 -7 82 10 23 45 c 1
EndSplineSet
EndChar
StartChar: T
Encoding: 84 84 52
Width: 584
Flags: MW
HStem: 0 49<90 378> 616 55<161 274 161 161 402 515 402 402>
VStem: 37 590<495 671>
LayerCount: 2
Fore
SplineSet
71 671 m 1
 627 671 l 1
 594 495 l 1
 527 495 l 1
 529 603 l 1
 515 616 l 1
 402 616 l 1
 299 69 l 1
 310 55 l 1
 378 49 l 1
 378 0 l 1
 90 0 l 1
 90 50 l 1
 159 54 l 1
 173 70 l 1
 274 616 l 1
 161 616 l 1
 143 603 l 1
 107 495 l 1
 37 495 l 1
 71 671 l 1
EndSplineSet
EndChar
StartChar: U
Encoding: 85 85 53
Width: 701
Flags: MW
HStem: -13 79<290 334> 623 48<76 353>
VStem: 72 129<147 176.5>
LayerCount: 2
Fore
SplineSet
76 671 m 1
 353 671 l 1
 353 624 l 1
 290 619 l 1
 276 607 l 1
 210 258 l 2
 205 230 201 206 201 185 c 0
 201 109 248 66 332 66 c 0
 444 66 492 125 516 249 c 2
 585 600 l 1
 575 617 l 1
 509 624 l 1
 509 671 l 1
 735 671 l 1
 735 624 l 1
 671 617 l 1
 656 603 l 1
 588 251 l 2
 574 177 560 116 506 62 c 0
 458 14 382 -13 286 -13 c 0
 148 -13 72 50 72 164 c 0
 72 189 75 218 82 254 c 2
 149 605 l 1
 137 618 l 1
 76 623 l 1
 76 671 l 1
EndSplineSet
EndChar
StartChar: V
Encoding: 86 86 54
Width: 617
Flags: MW
HStem: -3 20 623 48<27 285 27 285>
VStem: 27 650<625 671 625 671 625 671>
LayerCount: 2
Fore
SplineSet
27 671 m 1
 285 671 l 1
 285 623 l 1
 224 619 l 1
 215 603 l 1
 289 137 l 1
 531 606 l 1
 524 619 l 1
 466 623 l 1
 466 671 l 1
 677 671 l 1
 677 625 l 1
 619 616 l 1
 288 -3 l 1
 191 -3 l 1
 92 603 l 1
 83 616 l 1
 27 623 l 1
 27 671 l 1
EndSplineSet
EndChar
StartChar: W
Encoding: 87 87 55
Width: 921
Flags: MW
HStem: 0 20 623 48<43 299>
VStem: 43 920<625 671 625 671 625 671>
LayerCount: 2
Fore
SplineSet
43 671 m 1
 299 671 l 1
 299 624 l 1
 238 618 l 1
 227 601 l 1
 259 184 l 1
 483 671 l 1
 579 671 l 1
 630 175 l 1
 817 604 l 1
 809 618 l 1
 751 623 l 1
 751 671 l 1
 963 671 l 1
 963 625 l 1
 900 615 l 1
 627 0 l 1
 537 0 l 1
 484 515 l 1
 246 0 l 1
 155 0 l 1
 108 604 l 1
 98 616 l 1
 43 623 l 1
 43 671 l 1
EndSplineSet
EndChar
StartChar: X
Encoding: 88 88 56
Width: 608
Flags: MW
HStem: 0 48<-65 174 -65 -65> 622 49<52 326>
VStem: -65 723<0 671 48 671>
LayerCount: 2
Fore
SplineSet
52 671 m 1
 326 671 l 1
 326 624 l 1
 265 618 l 1
 254 603 l 1
 333 420 l 1
 495 605 l 1
 489 619 l 1
 433 624 l 1
 433 671 l 1
 658 671 l 1
 658 624 l 1
 593 618 l 1
 363 360 l 1
 495 61 l 1
 504 52 l 1
 565 47 l 1
 565 0 l 1
 288 0 l 1
 288 48 l 1
 352 53 l 1
 364 68 l 1
 278 267 l 1
 101 67 l 1
 111 53 l 1
 174 48 l 1
 174 0 l 1
 -65 0 l 1
 -65 48 l 1
 -7 54 l 1
 6 63 l 1
 246 332 l 1
 123 609 l 1
 115 618 l 1
 52 622 l 1
 52 671 l 1
EndSplineSet
EndChar
StartChar: Y
Encoding: 89 89 57
Width: 586
Flags: MW
HStem: 0 49<93 377 93 93> 623 48<26 299 26 299>
VStem: 26 630<624 671 624 671 624 671>
LayerCount: 2
Fore
SplineSet
26 671 m 1
 299 671 l 1
 299 623 l 1
 237 617 l 1
 225 603 l 1
 310 343 l 1
 495 600 l 1
 486 616 l 1
 422 622 l 1
 422 671 l 1
 656 671 l 1
 656 624 l 1
 591 615 l 1
 581 606 l 1
 337 276 l 1
 298 68 l 1
 309 55 l 1
 377 49 l 1
 377 0 l 1
 93 0 l 1
 93 49 l 1
 160 55 l 1
 176 71 l 1
 212 262 l 1
 98 609 l 1
 89 617 l 1
 26 623 l 1
 26 671 l 1
EndSplineSet
EndChar
StartChar: Z
Encoding: 90 90 58
Width: 572
Flags: MW
HStem: 0 59<141 382 141 470> 612 59<208 421 208 208>
VStem: -17 597
LayerCount: 2
Fore
SplineSet
118 671 m 1
 580 671 l 1
 577 622 l 1
 141 59 l 1
 382 59 l 1
 398 73 l 1
 436 196 l 1
 507 196 l 1
 470 0 l 1
 -17 0 l 1
 -14 50 l 1
 421 612 l 1
 208 612 l 1
 190 602 l 1
 156 493 l 1
 84 493 l 1
 118 671 l 1
EndSplineSet
EndChar
StartChar: bracketleft
Encoding: 91 91 59
Width: 449
Flags: MW
HStem: -132 55<176 321> 652 56<308 462 308 308>
VStem: 51 421
LayerCount: 2
Fore
SplineSet
203 708 m 1
 472 708 l 1
 462 652 l 1
 308 652 l 1
 176 -77 l 1
 330 -77 l 1
 321 -132 l 1
 51 -132 l 1
 203 708 l 1
EndSplineSet
EndChar
StartChar: backslash
Encoding: 92 92 60
Width: 481
Flags: MW
HStem: -93 764<21 504 21 425>
VStem: 21 483
LayerCount: 2
Fore
SplineSet
102 671 m 1
 504 -93 l 1
 425 -93 l 1
 21 671 l 1
 102 671 l 1
EndSplineSet
EndChar
StartChar: bracketright
Encoding: 93 93 61
Width: 449
Flags: MW
HStem: -132 55<-32 122 -32 227 -42 122> 653 55<109 253 99 378>
VStem: -42 420
LayerCount: 2
Fore
SplineSet
109 708 m 1
 378 708 l 1
 227 -132 l 1
 -42 -132 l 1
 -32 -77 l 1
 122 -77 l 1
 253 653 l 1
 99 653 l 1
 109 708 l 1
EndSplineSet
EndChar
StartChar: asciicircum
Encoding: 94 94 62
Width: 1000
Flags: MW
HStem: 438 276<201 552 201 552 447 797 447 746>
VStem: 201 596<438 438>
LayerCount: 2
Fore
SplineSet
552 714 m 1
 797 438 l 1
 746 438 l 1
 499 632 l 1
 252 438 l 1
 201 438 l 1
 447 714 l 1
 552 714 l 1
EndSplineSet
EndChar
StartChar: underscore
Encoding: 95 95 63
Width: 500
Flags: MW
HStem: -236 84<0 500 0 500>
VStem: 0 500<-236 -152 -236 -152>
LayerCount: 2
Fore
SplineSet
500 -152 m 1
 500 -236 l 1
 0 -236 l 1
 0 -152 l 1
 500 -152 l 1
EndSplineSet
EndChar
StartChar: grave
Encoding: 193 96 123
Width: 500
Flags: MW
HStem: 552 190<281 288 164 348 281 281>
VStem: 164 184
LayerCount: 2
Fore
SplineSet
164 742 m 1
 288 742 l 1
 348 552 l 1
 281 552 l 1
 164 742 l 1
EndSplineSet
EndChar
StartChar: a
Encoding: 97 97 65
Width: 572
Flags: MW
HStem: -8 81<117 237.5> 446 48<270.5 318.5 255.5 319.5>
VStem: 18 128<150 210>
LayerCount: 2
Fore
SplineSet
453 493 m 1
 512 493 l 1
 506 475 493 424 478 341 c 2
 448 179 l 2
 442 146 439 122 439 109 c 0
 439 75 458 55 481 55 c 0
 501 55 523 59 547 66 c 1
 547 29 l 1
 484 6 434 -6 396 -6 c 0
 347 -6 321 19 321 67 c 0
 321 68 321 70 321 72 c 1
 265 19 211 -8 162 -8 c 0
 72 -8 18 59 18 174 c 0
 18 246 38 312 78 373 c 0
 128 449 211 494 300 494 c 0
 337 494 375 485 416 469 c 1
 453 493 l 1
330 445 m 2
 326 445 322 446 317 446 c 0
 224 446 146 340 146 188 c 0
 146 112 173 73 222 73 c 0
 253 73 285 89 323 120 c 1
 370 385 l 1
 330 445 l 2
EndSplineSet
EndChar
StartChar: b
Encoding: 98 98 66
Width: 556
Flags: MW
HStem: -9 48<210 240.5> 416 78<286 411.5> 663 35<53 53> 716 20<224 268 268 268>
VStem: 382 126<270 338>
LayerCount: 2
Fore
SplineSet
135 650 m 1
 53 663 l 1
 53 698 l 1
 224 736 l 1
 268 736 l 1
 263 709 257 669 247 615 c 2
 212 424 l 1
 273 471 326 494 373 494 c 0
 450 494 508 425 508 316 c 0
 508 224 471 134 407 70 c 0
 355 18 283 -9 198 -9 c 0
 134 -9 78 6 27 35 c 1
 135 650 l 1
151 67 m 1
 172 49 197 39 223 39 c 0
 300 39 382 151 382 300 c 0
 382 376 354 416 298 416 c 0
 274 416 244 404 206 381 c 1
 151 67 l 1
EndSplineSet
EndChar
StartChar: c
Encoding: 99 99 67
Width: 437
Flags: MW
HStem: -10 80<209 216> 441 52<262 262>
VStem: 16 125<161.5 218.5>
LayerCount: 2
Fore
SplineSet
326 339 m 1
 262 441 l 1
 195 422 141 329 141 205 c 0
 141 118 178 70 240 70 c 0
 283 70 337 94 394 144 c 1
 394 85 l 1
 322 21 247 -10 185 -10 c 0
 84 -10 16 65 16 182 c 0
 16 255 38 321 82 381 c 0
 132 449 219 493 299 493 c 0
 370 493 409 461 409 412 c 0
 409 372 377 341 326 339 c 1
EndSplineSet
EndChar
StartChar: d
Encoding: 100 100 68
Width: 579
Flags: MW
HStem: -8 80<122 238.5> 451 45<273 316> 663 34<335 335> 716 20<509 551 551 551>
VStem: 21 126<151.5 211.5>
LayerCount: 2
Fore
SplineSet
509 736 m 1
 551 736 l 1
 458 179 l 2
 452 142 449 118 449 106 c 0
 449 75 468 55 491 55 c 0
 511 55 534 59 558 66 c 1
 558 29 l 1
 495 6 444 -6 406 -6 c 0
 350 -6 325 19 325 74 c 0
 325 75 325 76 325 77 c 1
 268 20 214 -8 163 -8 c 0
 81 -8 21 62 21 177 c 0
 21 246 40 312 76 368 c 0
 129 450 213 496 309 496 c 0
 334 496 362 490 391 479 c 1
 419 650 l 1
 335 663 l 1
 335 697 l 1
 509 736 l 1
333 449 m 1
 326 450 319 451 313 451 c 0
 233 451 147 339 147 189 c 0
 147 114 177 72 223 72 c 0
 254 72 292 91 332 128 c 1
 375 389 l 1
 333 449 l 1
EndSplineSet
EndChar
StartChar: e
Encoding: 101 101 69
Width: 464
Flags: MW
HStem: -9 75<212.5 226> 226 43 441 50<277 296>
VStem: 19 120<154.5 201.5 154.5 228> 330 101<361 405.5>
LayerCount: 2
Fore
SplineSet
141 227 m 1
 140 216 139 206 139 197 c 0
 139 112 179 66 246 66 c 0
 289 66 343 89 403 136 c 1
 401 75 l 1
 328 18 256 -9 196 -9 c 0
 85 -9 19 62 19 181 c 0
 19 275 58 361 132 424 c 0
 183 467 247 491 307 491 c 0
 385 491 431 448 431 382 c 0
 431 287 339 226 172 226 c 0
 162 226 152 227 141 227 c 1
149 269 m 1
 261 274 330 332 330 390 c 0
 330 421 311 441 281 441 c 0
 229 441 177 382 149 269 c 1
EndSplineSet
EndChar
StartChar: f
Encoding: 102 102 70
Width: 325
Flags: MW
HStem: -214 68<-105 -7> 408 59<225 361 225 361 216 361> 686 47<299 299>
VStem: -154 601
LayerCount: 2
Fore
SplineSet
383 598 m 1
 299 686 l 1
 270 651 245 578 225 467 c 1
 361 467 l 1
 361 408 l 1
 216 408 l 1
 179 147 l 2
 166 58 145 -15 107 -75 c 0
 50 -165 -23 -214 -85 -214 c 0
 -125 -214 -154 -187 -154 -152 c 0
 -154 -123 -140 -100 -114 -89 c 1
 -7 -146 l 1
 24 -105 40 -22 58 102 c 2
 101 408 l 1
 34 400 l 1
 35 444 l 1
 113 478 l 1
 141 636 246 733 350 733 c 0
 408 733 447 701 447 664 c 0
 447 634 423 607 383 598 c 1
EndSplineSet
EndChar
StartChar: g
Encoding: 103 103 71
Width: 517
Flags: W
HStem: -218 50<167 240 167 250> 161 46 411 52<425 527 425 425> 448 44<240 282>
VStem: -30 107<-89.5 -53.5> 44 120<266.5 328.5 258.5 352.5> 319 116<324.5 362.5 299.5 396.5> 319 120<-101 -78>
LayerCount: 2
Fore
SplineSet
390 463 m 1x22
 527 463 l 1
 527 411 l 1
 425 411 l 1
 431 390 435 371 435 354 c 0x22
 435 245 345 162 209 161 c 1
 201 148 197 136 197 123 c 0
 197 122 197 120 197 119 c 2
 348 47 l 2
 409 18 439 -12 439 -61 c 0
 439 -141 331 -218 169 -218 c 0
 46 -218 -30 -163 -30 -85 c 0xc9
 -30 -22 18 23 116 62 c 0
 116 63 116 65 116 66 c 0
 116 102 130 133 158 168 c 1
 84 188 44 236 44 297 c 0
 44 408 136 492 266 492 c 0x55
 308 492 349 482 390 463 c 1x22
319 371 m 0x55
 319 422 300 448 264 448 c 0
 216 448 164 374 164 283 c 0
 164 234 184 207 219 207 c 0
 267 207 319 278 319 371 c 0x55
141 29 m 1xc9
 98 6 77 -22 77 -59 c 0
 77 -120 128 -168 206 -168 c 0
 274 -168 319 -132 319 -90 c 0
 319 -66 300 -44 261 -26 c 2
 141 29 l 1xc9
EndSplineSet
EndChar
StartChar: h
Encoding: 104 104 72
Width: 595
Flags: W
HStem: -6 61<382.5 504> 0 20 408 86<318.5 437> 665 32<63 64> 716 20<241 286 286 286>
VStem: 381 123<343.5 427.5>
LayerCount: 2
Fore
SplineSet
241 736 m 1x7c
 286 736 l 1
 273 682 261 625 249 564 c 2
 215 395 l 1
 295 461 359 494 408 494 c 0
 466 494 504 457 504 398 c 0
 504 378 500 351 493 317 c 2
 463 179 l 2
 456 146 452 122 452 106 c 0
 452 75 471 55 494 55 c 0
 514 55 536 59 560 66 c 1
 560 29 l 1
 497 6 447 -6 409 -6 c 0xac
 356 -6 328 18 328 65 c 0
 328 79 331 97 336 118 c 2
 372 284 l 2
 378 313 381 336 381 351 c 0
 381 388 363 408 333 408 c 0
 304 408 260 387 206 342 c 1
 144 0 l 1
 20 0 l 1
 151 655 l 1
 64 665 l 1
 63 697 l 1
 241 736 l 1x7c
EndSplineSet
EndChar
StartChar: i
Encoding: 105 105 73
Width: 318
Flags: MW
HStem: -7 66<97.5 231.5> 420 36<29 29> 473 20<200 244 244 244> 586 139<198 232.5>
VStem: 143 144<640 671>
LayerCount: 2
Fore
SplineSet
220 725 m 0
 262 725 287 700 287 661 c 0
 287 619 254 586 211 586 c 0
 170 586 143 612 143 649 c 0
 143 693 176 725 220 725 c 0
200 493 m 1
 244 493 l 1
 180 155 l 2
 177 138 175 124 175 114 c 0
 175 78 192 59 224 59 c 0
 239 59 263 64 293 73 c 1
 293 32 l 1
 230 7 175 -7 122 -7 c 0
 73 -7 48 20 48 71 c 0
 48 88 52 111 57 138 c 2
 111 407 l 1
 29 420 l 1
 29 456 l 1
 200 493 l 1
EndSplineSet
EndChar
StartChar: j
Encoding: 106 106 74
Width: 297
Flags: MW
HStem: -214 74<-98.5 5> 420 36<26 26> 473 20<205 249 249 249> 584 139<195 229.5>
VStem: 140 144<638 669>
LayerCount: 2
Fore
SplineSet
217 723 m 0
 259 723 284 698 284 659 c 0
 284 617 251 584 208 584 c 0
 167 584 140 611 140 648 c 0
 140 690 173 723 217 723 c 0
116 407 m 1
 26 420 l 1
 26 456 l 1
 205 493 l 1
 249 493 l 1
 195 155 l 2
 179 53 164 -33 96 -108 c 0
 31 -179 -30 -214 -78 -214 c 0
 -119 -214 -146 -190 -146 -153 c 0
 -146 -124 -134 -104 -112 -93 c 1
 5 -140 l 1
 37 -100 52 -23 69 90 c 2
 116 407 l 1
EndSplineSet
EndChar
StartChar: k
Encoding: 107 107 75
Width: 559
Flags: MW
HStem: -7 7 22 31 474 20<439.5 478.5> 664 33<60 60> 716 20<240 283 283 283>
VStem: 23 499<0 446>
LayerCount: 2
Fore
SplineSet
240 736 m 1
 283 736 l 1
 186 258 l 1
 316 395 l 2
 376 458 418 494 461 494 c 0
 496 494 522 465 522 427 c 0
 522 387 495 356 441 340 c 1
 405 398 l 1
 358 362 327 335 313 321 c 1
 390 141 422 53 492 53 c 0
 504 53 521 56 543 61 c 1
 543 22 l 1
 478 3 430 -7 401 -7 c 0
 339 -7 316 30 286 101 c 2
 223 247 l 1
 177 197 l 1
 142 0 l 1
 23 0 l 1
 149 656 l 1
 60 664 l 1
 60 697 l 1
 240 736 l 1
EndSplineSet
EndChar
StartChar: l
Encoding: 108 108 76
Width: 307
Flags: MW
HStem: -9 64<94.5 210.5> 663 35<58 58> 716 20<229 273 273 273>
VStem: 34 246<41 70 31 71.5>
LayerCount: 2
Fore
SplineSet
140 650 m 1
 58 663 l 1
 58 698 l 1
 229 736 l 1
 273 736 l 1
 169 179 l 2
 163 150 158 126 158 106 c 0
 158 75 176 55 199 55 c 0
 222 55 249 60 280 70 c 1
 280 31 l 1
 208 5 156 -9 123 -9 c 0
 66 -9 34 17 34 65 c 0
 34 78 37 95 41 118 c 2
 140 650 l 1
EndSplineSet
EndChar
StartChar: m
Encoding: 109 109 77
Width: 883
Flags: W
HStem: -6 61<673.5 794> 0 20 409 84<202 354> 417 35<32 32>
VStem: 34 817<0 66>
LayerCount: 2
Fore
SplineSet
202 493 m 1xa8
 241 493 l 1
 222 395 l 1
 297 462 364 493 415 493 c 0
 472 493 506 460 509 398 c 1
 583 463 649 493 695 493 c 0
 756 493 794 455 794 394 c 0
 794 375 791 354 786 329 c 2
 754 179 l 2
 747 147 743 123 743 106 c 0
 743 75 761 55 784 55 c 0
 804 55 827 59 851 66 c 1
 851 29 l 1
 788 6 738 -6 700 -6 c 0xa8
 647 -6 619 18 619 65 c 0
 619 79 622 96 627 118 c 2
 665 295 l 2
 670 317 673 336 673 353 c 0
 673 388 655 408 623 408 c 0
 593 408 549 388 505 346 c 1
 446 0 l 1
 323 0 l 1
 381 301 l 2
 385 322 388 338 388 351 c 0
 388 388 370 409 338 409 c 0x60
 311 409 268 389 217 347 c 1
 156 0 l 1
 34 0 l 1
 112 405 l 1
 32 417 l 1
 32 452 l 1x58
 202 493 l 1xa8
EndSplineSet
EndChar
StartChar: n
Encoding: 110 110 78
Width: 600
Flags: W
HStem: -6 61<390.5 512> 0 20 408 85<202 355> 417 33<26 26>
VStem: 26 542<28 450 28 450>
LayerCount: 2
Fore
SplineSet
202 493 m 1xa8
 241 493 l 1
 221 394 l 1
 301 459 364 493 421 493 c 0
 473 493 512 455 512 395 c 0
 512 376 508 349 501 316 c 2
 471 179 l 2
 464 145 460 121 460 105 c 0
 460 75 479 55 502 55 c 0
 522 55 544 59 568 66 c 1
 568 28 l 1
 506 5 455 -6 417 -6 c 0
 364 -6 336 19 336 65 c 0
 336 80 340 97 344 118 c 2
 380 284 l 2
 386 313 389 335 389 350 c 0
 389 387 370 408 340 408 c 0xa8
 311 408 268 387 215 342 c 1
 156 0 l 1
 29 0 l 1
 109 406 l 1
 26 417 l 1
 26 450 l 1x58
 202 493 l 1xa8
EndSplineSet
EndChar
StartChar: o
Encoding: 111 111 79
Width: 550
Flags: MW
HStem: -11 52<205.5 259> 441 52<261.5 314>
VStem: 19 129<135 236> 372 129<246.5 346>
LayerCount: 2
Fore
SplineSet
298 493 m 0
 423 493 501 413 501 287 c 0
 501 206 470 127 414 69 c 0
 364 17 296 -11 222 -11 c 0
 97 -11 19 70 19 197 c 0
 19 275 51 355 106 412 c 0
 156 464 225 493 298 493 c 0
285 441 m 0
 213 441 148 338 148 181 c 0
 148 89 178 41 233 41 c 0
 307 41 372 145 372 298 c 0
 372 394 343 441 285 441 c 0
EndSplineSet
EndChar
StartChar: p
Encoding: 112 112 80
Width: 565
Flags: W
HStem: -218 39<-63 216> -3 56<220 267.5> 419 37 421 73
VStem: 394 125<271.5 342.5>
LayerCount: 2
Fore
SplineSet
194 493 m 1x68
 238 493 l 1
 224 425 l 1
 280 471 334 494 385 494 c 0
 464 494 519 428 519 319 c 0
 519 224 490 148 428 83 c 0
 377 29 304 -3 231 -3 c 0
 205 -3 179 3 153 13 c 1
 123 -161 l 1
 216 -179 l 1
 216 -218 l 1
 -63 -218 l 1
 -63 -178 l 1
 -2 -162 l 1
 7 -149 l 1
 105 411 l 1
 27 421 l 1xd8
 27 456 l 1
 194 493 l 1x68
162 70 m 1x68
 187 58 209 53 231 53 c 0
 318 53 394 158 394 306 c 0
 394 379 363 419 315 419 c 0
 288 419 256 405 217 376 c 1
 162 70 l 1x68
EndSplineSet
EndChar
StartChar: q
Encoding: 113 113 81
Width: 562
Flags: MW
HStem: -218 40<210 491 210 210> -6 79<123.5 248.5> 449 47<295 318>
VStem: 24 123<152.5 220>
LayerCount: 2
Fore
SplineSet
462 496 m 1
 515 496 l 1
 507 453 495 389 481 306 c 2
 401 -163 l 1
 491 -180 l 1
 491 -218 l 1
 210 -218 l 1
 210 -178 l 1
 272 -166 l 1
 283 -152 l 1
 322 66 l 1
 264 18 214 -6 167 -6 c 0
 80 -6 24 61 24 177 c 0
 24 263 51 339 101 398 c 0
 154 461 226 496 303 496 c 0
 338 496 375 488 417 473 c 1
 462 496 l 1
334 448 m 1
 328 449 321 449 315 449 c 0
 275 449 240 430 209 389 c 0
 175 345 147 265 147 191 c 0
 147 114 179 73 233 73 c 0
 264 73 295 88 332 117 c 1
 377 386 l 1
 334 448 l 1
EndSplineSet
EndChar
StartChar: r
Encoding: 114 114 82
Width: 449
Flags: W
HStem: 0 20 410 82<324 397.5> 418 34<26 26>
VStem: 29 421<0 441>
LayerCount: 2
Fore
SplineSet
198 493 m 1xb0
 233 493 l 1
 205 359 l 1
 269 448 329 492 376 492 c 0
 419 492 450 463 450 419 c 0
 450 371 412 334 353 334 c 2
 353 334 352 334 351 334 c 2
 324 410 l 1x50
 243 376 206 321 191 232 c 2
 152 0 l 1
 29 0 l 1
 109 406 l 1
 26 418 l 1
 26 452 l 1
 198 493 l 1xb0
EndSplineSet
EndChar
StartChar: s
Encoding: 115 115 83
Width: 403
Flags: MW
HStem: -9 46<142 175 142 197> 449 44<202.5 227>
VStem: 49 102<377 377.5> 228 109<111 134.5>
LayerCount: 2
Fore
SplineSet
104 134 m 1
 86 61 l 1
 109 45 131 37 153 37 c 0
 197 37 228 68 228 109 c 0
 228 160 192 179 145 211 c 0
 83 254 49 284 49 333 c 0
 49 422 133 493 247 493 c 0
 320 493 362 463 362 419 c 0
 362 384 335 359 291 357 c 1
 244 447 l 1
 237 448 230 449 224 449 c 0
 181 449 151 423 151 392 c 0
 151 362 181 338 231 302 c 0
 296 255 337 224 337 156 c 0
 337 66 254 -9 140 -9 c 0
 48 -9 -12 37 -12 95 c 0
 -12 132 13 157 48 157 c 0
 70 157 88 149 104 134 c 1
EndSplineSet
EndChar
StartChar: t
Encoding: 116 116 84
Width: 366
Flags: MW
HStem: -8 65<112.5 241> 415 58<233 370 233 370 222 370> 581 20<191 256 256 256>
VStem: 48 123<56 127>
LayerCount: 2
Fore
SplineSet
191 601 m 1
 256 601 l 1
 233 473 l 1
 370 473 l 1
 370 415 l 1
 222 415 l 1
 177 170 l 2
 173 150 171 134 171 120 c 0
 171 78 191 57 230 57 c 0
 252 57 281 63 317 75 c 1
 317 35 l 1
 237 7 180 -8 144 -8 c 0
 81 -8 48 25 48 87 c 0
 48 106 50 127 55 151 c 2
 105 415 l 1
 39 412 l 1
 39 448 l 1
 125 491 l 1
 191 601 l 1
EndSplineSet
EndChar
StartChar: u
Encoding: 117 117 85
Width: 599
Flags: MW
HStem: -10 85<123.5 240.5> 419 31<28 28> 467 20<201 239 239 239>
VStem: 53 120<60.5 135>
LayerCount: 2
Fore
SplineSet
201 487 m 1
 239 487 l 1
 181 188 l 2
 176 161 173 141 173 129 c 0
 173 93 192 75 226 75 c 0
 255 75 296 90 346 123 c 1
 414 475 l 1
 533 489 l 1
 474 179 l 2
 468 150 463 126 463 106 c 0
 463 75 482 55 505 55 c 0
 525 55 548 59 572 66 c 1
 572 29 l 1
 502 5 450 -9 415 -9 c 0
 366 -9 340 18 340 68 c 0
 340 71 340 74 340 77 c 1
 262 18 199 -10 156 -10 c 0
 91 -10 53 28 53 93 c 0
 53 108 55 126 59 147 c 2
 108 407 l 1
 28 419 l 1
 28 450 l 1
 201 487 l 1
EndSplineSet
EndChar
StartChar: v
Encoding: 118 118 86
Width: 492
Flags: MW
HStem: -1 20 424 32<-8 -8> 473 21
VStem: -8 480<424 446.5 389.5 456 389.5 456>
LayerCount: 2
Fore
SplineSet
150 493 m 1
 191 481 196 450 201 392 c 2
 226 108 l 1
 287 183 334 255 366 321 c 1
 343 469 l 1
 364 486 385 494 405 494 c 0
 446 494 472 468 472 425 c 0
 472 354 383 205 194 -1 c 1
 108 -1 l 1
 115 22 119 41 119 60 c 0
 119 64 118 69 118 73 c 2
 97 281 l 2
 90 348 84 392 73 412 c 1
 -8 424 l 1
 -8 456 l 1
 150 493 l 1
EndSplineSet
EndChar
StartChar: w
Encoding: 119 119 87
Width: 768
Flags: MW
HStem: 0 20 423 33<-2 -2> 474 20<141 187 187 187>
VStem: -2 742<423 444 382 456 382 456>
LayerCount: 2
Fore
SplineSet
141 494 m 1
 187 494 l 1
 207 129 l 1
 270 245 329 358 380 471 c 1
 474 479 l 1
 478 387 485 260 496 95 c 1
 567 189 614 263 637 317 c 1
 613 467 l 1
 630 485 651 493 675 493 c 0
 714 493 740 465 740 423 c 0
 740 341 647 208 481 0 c 1
 395 0 l 1
 375 345 l 1
 314 227 252 112 188 0 c 1
 94 0 l 1
 103 31 l 1
 81 411 l 1
 -2 423 l 1
 -2 456 l 1
 141 494 l 1
EndSplineSet
EndChar
StartChar: x
Encoding: 120 120 88
Width: 510
Flags: MW
HStem: -6 60<304.5 428.5> 409 85<116 169>
VStem: -38 549<46.5 441.5>
LayerCount: 2
Fore
SplineSet
162 494 m 2
 164 494 167 494 169 494 c 0
 225 494 243 437 274 315 c 1
 335 429 391 487 448 487 c 0
 485 487 511 460 511 423 c 0
 511 388 488 359 447 347 c 1
 408 400 l 1
 370 383 332 338 297 265 c 1
 339 120 353 54 420 54 c 0
 437 54 455 56 475 61 c 1
 475 22 l 1
 417 4 374 -6 343 -6 c 0
 266 -6 236 50 208 178 c 1
 143 59 90 -1 33 -1 c 0
 -6 -1 -38 29 -38 64 c 0
 -38 96 -14 125 26 135 c 1
 69 82 l 1
 110 110 151 160 186 230 c 1
 157 322 135 382 116 409 c 1
 25 416 l 1
 25 450 l 1
 162 494 l 2
EndSplineSet
EndChar
StartChar: y
Encoding: 121 121 89
Width: 494
Flags: MW
HStem: -216 81<-18 47> 426 33<-14 -14> 474 19
VStem: -78 591<-159 467>
LayerCount: 2
Fore
SplineSet
140 494 m 1
 183 486 201 436 216 340 c 2
 250 122 l 1
 291 225 341 349 403 493 c 1
 434 493 l 1
 513 467 l 1
 513 440 l 1
 454 407 l 1
 376 303 336 159 259 21 c 0
 171 -137 88 -216 6 -216 c 0
 -42 -216 -78 -179 -78 -139 c 0
 -78 -105 -56 -79 -20 -72 c 1
 47 -135 l 1
 92 -131 142 -77 196 26 c 1
 158 26 l 1
 98 343 l 2
 93 371 84 397 73 418 c 1
 -14 426 l 1
 -14 459 l 1
 140 494 l 1
EndSplineSet
EndChar
StartChar: z
Encoding: 122 122 90
Width: 465
Flags: MW
HStem: -2 92<233 324> 398 97<120.5 205>
VStem: -20 481<27 456>
LayerCount: 2
Fore
SplineSet
387 502 m 1
 461 456 l 1
 130 108 l 1
 217 132 l 1
 255 104 286 90 313 90 c 0
 335 90 355 99 372 115 c 1
 308 187 l 1
 322 216 342 231 366 231 c 0
 398 231 424 203 424 162 c 0
 424 127 408 87 378 52 c 0
 346 15 311 -2 264 -2 c 0
 202 -2 146 39 97 39 c 0
 90 39 82 38 74 36 c 1
 50 -14 l 1
 -20 27 l 1
 307 379 l 1
 220 361 l 1
 184 386 155 398 131 398 c 0
 110 398 93 391 79 376 c 1
 137 309 l 1
 122 281 102 267 77 267 c 0
 47 267 27 292 27 331 c 0
 27 354 36 381 53 410 c 0
 86 465 133 495 181 495 c 0
 229 495 264 469 296 456 c 0
 315 448 332 444 349 444 c 0
 354 444 359 444 364 445 c 1
 387 502 l 1
EndSplineSet
EndChar
StartChar: braceleft
Encoding: 123 123 91
Width: 487
Flags: MW
HStem: -134 53<423.5 429> 263 57<47 67 47 50.5> 654 51<407 429>
VStem: 187 116<448 467 467 529 414.5 532 414.5 596.5>
LayerCount: 2
Fore
SplineSet
429 705 m 1
 429 654 l 1
 328 651 303 620 303 529 c 2
 303 467 l 2
 303 362 260 309 156 292 c 1
 258 276 304 221 304 119 c 2
 304 46 l 2
 304 -49 325 -80 429 -81 c 1
 429 -134 l 1
 418 -134 408 -135 398 -135 c 0
 243 -135 187 -88 187 51 c 2
 187 132 l 2
 187 229 157 263 67 263 c 0
 61 263 54 263 47 263 c 1
 47 320 l 1
 54 320 61 320 67 320 c 0
 159 320 187 354 187 448 c 2
 187 532 l 2
 187 661 249 705 407 705 c 0
 414 705 422 705 429 705 c 1
EndSplineSet
EndChar
StartChar: bar
Encoding: 124 124 92
Width: 500
Flags: MW
HStem: -236 20 744 20<207 294 294 294>
VStem: 207 87<-236 764 -236 764>
LayerCount: 2
Fore
SplineSet
294 764 m 1
 294 -236 l 1
 207 -236 l 1
 207 764 l 1
 294 764 l 1
EndSplineSet
EndChar
StartChar: braceright
Encoding: 125 125 93
Width: 487
Flags: MW
HStem: -134 53<59 64.5> 263 56<376 421.5 373.5 424 421 421.5 373.5 441> 654 51<59 81>
VStem: 184 117<46 51 51 119 119 132 -18.5 170 467 529 529 532>
LayerCount: 2
Fore
SplineSet
59 705 m 1
 66 705 74 705 81 705 c 0
 239 705 301 661 301 532 c 2
 301 448 l 2
 301 355 329 319 418 319 c 0
 425 319 433 320 441 320 c 1
 441 263 l 1
 434 263 427 263 421 263 c 0
 331 263 301 229 301 132 c 2
 301 51 l 2
 301 -88 245 -135 90 -135 c 0
 80 -135 70 -134 59 -134 c 1
 59 -81 l 1
 163 -80 184 -49 184 46 c 2
 184 119 l 2
 184 221 231 276 332 292 c 1
 228 309 184 361 184 467 c 2
 184 529 l 2
 184 620 159 651 59 654 c 1
 59 705 l 1
EndSplineSet
EndChar
StartChar: exclamdown
Encoding: 161 161 95
Width: 340
Flags: MW
HStem: -7 487<86 223> 533 151<205.5 232>
VStem: 143 151<594 622>
LayerCount: 2
Fore
SplineSet
210 533 m 0
 172 533 143 561 143 599 c 0
 143 645 183 684 228 684 c 0
 264 684 294 655 294 617 c 0
 294 571 254 533 210 533 c 0
58 122 m 2
 171 480 l 1
 223 480 l 1
 202 125 l 2
 197 37 172 -7 106 -7 c 0
 66 -7 43 15 43 52 c 0
 43 71 49 93 58 122 c 2
EndSplineSet
EndChar
StartChar: cent
Encoding: 162 162 96
Width: 586
Flags: MW
HStem: -103 20 0 54<299 309> 455 54<332 341> 589 20<360 414 414 414>
VStem: 46 121<160.5 267.5 160.5 288>
LayerCount: 2
Fore
SplineSet
360 609 m 1
 414 609 l 1
 395 510 l 1
 459 505 506 496 535 481 c 1
 509 351 l 1
 448 351 l 1
 450 440 l 1
 430 451 408 457 385 458 c 1
 309 54 l 1
 333 55 358 60 384 71 c 1
 413 161 l 1
 477 161 l 1
 450 25 l 1
 401 9 351 1 299 0 c 1
 279 -103 l 1
 225 -103 l 1
 244 2 l 1
 119 18 46 98 46 209 c 0
 46 367 162 493 341 509 c 1
 360 609 l 1
332 455 m 1
 236 436 167 334 167 201 c 0
 167 120 199 70 257 56 c 1
 332 455 l 1
EndSplineSet
EndChar
StartChar: sterling
Encoding: 163 163 97
Width: 586
Flags: MW
HStem: 0 100<122 122 225 478> 299 60<76 138 69 144 267 439> 625 51<371 416 415 422>
VStem: 144 123<359 359>
LayerCount: 2
Fore
SplineSet
461 509 m 1
 422 625 l 2
 419 625 417 625 415 625 c 0
 327 625 283 538 267 359 c 1
 447 359 l 1
 439 299 l 1
 258 299 l 1
 246 207 202 143 122 100 c 1
 125 94 l 1
 167 99 201 100 225 100 c 2
 490 100 l 1
 478 0 l 1
 -11 0 l 1
 -2 75 l 1
 92 92 123 159 138 299 c 1
 69 299 l 1
 76 359 l 1
 144 359 l 1
 158 565 259 676 413 676 c 0
 504 676 562 627 562 574 c 0
 562 535 531 508 480 508 c 0
 474 508 467 508 461 509 c 1
EndSplineSet
EndChar
StartChar: currency
Encoding: 168 164 102
Width: 606
Flags: MW
HStem: 226 65<281 327> 574 65<280 326 280 343>
VStem: 97 65<409.5 454.5> 446 64<409.5 454.5 409.5 470.5>
LayerCount: 2
Fore
SplineSet
181 599 m 1
 217 626 257 639 303 639 c 0
 349 639 390 626 426 599 c 1
 525 698 l 1
 571 653 l 1
 471 553 l 1
 497 518 510 477 510 432 c 0
 510 387 497 346 471 311 c 1
 571 211 l 1
 525 166 l 1
 426 266 l 1
 389 239 350 226 304 226 c 0
 258 226 217 239 181 266 c 1
 82 166 l 1
 37 211 l 1
 136 311 l 1
 110 346 97 387 97 432 c 0
 97 477 110 518 136 553 c 1
 37 653 l 1
 82 698 l 1
 181 599 l 1
446 432 m 0
 446 509 382 574 304 574 c 0
 226 574 162 509 162 432 c 0
 162 354 225 291 304 291 c 0
 383 291 446 354 446 432 c 0
EndSplineSet
EndChar
StartChar: yen
Encoding: 165 165 99
Width: 601
Flags: MW
HStem: 0 49<99 392 99 99> 234 49<10 219 10 220 10 219 347 556> 378 50<37 166 37 187 37 166 458 585> 619 49<49 312 49 312>
VStem: 10 641<234 668 283 668>
LayerCount: 2
Fore
SplineSet
49 668 m 1
 312 668 l 1
 312 619 l 1
 251 613 l 1
 240 602 l 1
 325 349 l 1
 502 593 l 1
 498 609 l 1
 449 620 l 1
 449 668 l 1
 651 668 l 1
 651 619 l 1
 591 608 l 1
 458 428 l 1
 585 428 l 1
 585 378 l 1
 417 378 l 1
 347 283 l 1
 556 283 l 1
 556 234 l 1
 341 234 l 1
 312 69 l 1
 326 54 l 1
 392 49 l 1
 392 0 l 1
 99 0 l 1
 99 49 l 1
 170 54 l 1
 191 69 l 1
 220 234 l 1
 10 234 l 1
 10 283 l 1
 219 283 l 1
 187 378 l 1
 37 378 l 1
 37 428 l 1
 166 428 l 1
 105 609 l 1
 49 619 l 1
 49 668 l 1
EndSplineSet
EndChar
StartChar: section
Encoding: 167 167 101
Width: 500
Flags: MW
HStem: -141 52<139.5 187 139.5 215.5> 669 51<299.5 345>
VStem: 34 93<272.5 298.5> 356 95<294.5 316>
LayerCount: 2
Fore
SplineSet
489 695 m 1
 465 559 l 1
 411 559 l 1
 416 641 l 1
 387 659 359 669 331 669 c 0
 268 669 219 625 219 579 c 0
 219 528 267 515 342 474 c 0
 416 433 451 392 451 330 c 0
 451 259 395 182 298 144 c 1
 352 112 377 80 377 36 c 0
 377 -60 287 -141 144 -141 c 0
 91 -141 40 -130 -10 -109 c 1
 14 28 l 1
 71 28 l 1
 68 -64 l 1
 97 -81 125 -89 154 -89 c 0
 220 -89 268 -45 268 2 c 0
 268 59 211 77 127 122 c 0
 64 156 34 199 34 260 c 0
 34 337 86 405 184 443 c 1
 132 474 108 505 108 551 c 0
 108 647 197 720 342 720 c 0
 390 720 438 711 489 695 c 1
231 416 m 1
 163 391 127 348 127 300 c 0
 127 245 169 215 254 172 c 1
 322 207 356 249 356 292 c 0
 356 340 314 378 231 416 c 1
EndSplineSet
EndChar
StartChar: dieresis
Encoding: 200 168 130
Width: 500
Flags: MW
HStem: 579 131<184 218.5 390.5 425>
VStem: 138 127<626.5 662 626.5 662.5> 344 128<626 662.5>
LayerCount: 2
Fore
SplineSet
201 710 m 0
 236 710 265 680 265 644 c 0
 265 609 236 579 201 579 c 0
 167 579 138 608 138 644 c 0
 138 681 166 710 201 710 c 0
408 710 m 0
 442 710 472 681 472 644 c 0
 472 608 443 579 408 579 c 0
 373 579 344 608 344 644 c 0
 344 681 373 710 408 710 c 0
EndSplineSet
EndChar
StartChar: copyright
Encoding: 313 169 206
Width: 894
Flags: MW
HStem: -50 46<406 498 406 500.5> 103 49<435.5 490 435.5 492> 525 49<435.5 489.5 393 492.5> 685 44<407.5 497>
VStem: 63 48<293 386 293 391.5> 216 110<281 393.5 281 407.5> 793 48<295 386>
LayerCount: 2
Fore
SplineSet
453 729 m 0
 555 729 657 687 730 613 c 0
 800 542 841 441 841 336 c 0
 841 237 799 137 722 61 c 0
 649 -11 554 -50 447 -50 c 0
 349 -50 251 -9 177 65 c 0
 102 139 63 235 63 340 c 0
 63 443 102 539 176 614 c 0
 249 688 349 729 453 729 c 0
453 685 m 0
 362 685 275 648 211 583 c 0
 146 516 111 432 111 340 c 0
 111 246 145 163 211 97 c 0
 278 31 360 -4 452 -4 c 0
 544 -4 628 31 692 97 c 0
 757 164 793 250 793 340 c 0
 793 432 756 521 693 584 c 0
 629 648 541 685 453 685 c 0
612 549 m 1
 612 428 l 1
 559 428 l 1
 544 507 l 1
 524 519 504 525 481 525 c 0
 390 525 326 450 326 337 c 0
 326 225 392 152 479 152 c 0
 501 152 522 158 545 168 c 1
 560 253 l 1
 612 253 l 1
 612 128 l 1
 564 111 515 103 469 103 c 0
 315 103 216 200 216 339 c 0
 216 476 317 574 469 574 c 0
 510 574 557 568 612 549 c 1
EndSplineSet
EndChar
StartChar: ordfeminine
Encoding: 227 170 138
Width: 429
Flags: MW
HStem: 319 57<88 178.5> 637 34<203 239 191.5 240>
VStem: 14 96<430 472>
LayerCount: 2
Fore
SplineSet
340 670 m 1
 384 670 l 1
 380 657 370 622 359 564 c 2
 336 450 l 2
 332 427 329 410 329 401 c 0
 329 377 344 363 361 363 c 0
 376 363 392 366 410 371 c 1
 410 345 l 1
 363 329 326 321 297 321 c 0
 260 321 241 338 241 372 c 0
 241 373 241 374 241 375 c 1
 199 338 158 319 122 319 c 0
 54 319 14 366 14 447 c 0
 14 497 29 543 59 586 c 0
 96 639 158 671 225 671 c 0
 253 671 281 664 312 653 c 1
 340 670 l 1
248 636 m 2
 245 636 242 637 238 637 c 0
 168 637 110 563 110 457 c 0
 110 403 130 376 167 376 c 0
 190 376 214 387 242 409 c 1
 278 594 l 1
 248 636 l 2
EndSplineSet
EndChar
StartChar: guillemotleft
Encoding: 171 171 105
Width: 450
Flags: W
HStem: 55 370<159 227 227 360>
VStem: 10 217<198 282> 211 217
LayerCount: 2
Fore
SplineSet
227 425 m 1xc0
 212 342 l 1
 83 240 l 1
 174 138 l 1
 159 55 l 1
 10 198 l 1
 26 282 l 1
 227 425 l 1xc0
428 425 m 1xa0
 413 342 l 1
 284 240 l 1
 375 138 l 1
 360 55 l 1
 211 198 l 1xa0
 227 282 l 1xc0
 428 425 l 1xa0
EndSplineSet
EndChar
StartChar: logicalnot
Encoding: 314 172 207
Width: 833
Flags: MW
HStem: 340 81<124 628 124 709>
VStem: 628 81<176 340 340 340>
LayerCount: 2
Fore
SplineSet
709 421 m 1
 709 176 l 1
 628 176 l 1
 628 340 l 1
 124 340 l 1
 124 421 l 1
 709 421 l 1
EndSplineSet
EndChar
StartChar: registered
Encoding: 315 174 208
Width: 894
Flags: MW
HStem: -50 46<405.5 498 405.5 500.5> 122 37<704 709> 313 41<398 455 398 455> 520 39<412.5 452.5> 685 44<408 498>
VStem: 63 48<296 388 296 391.5> 304 94<169 313 169 355 355 512 512 512> 528 103<421.5 462.5> 793 48<294.5 385>
LayerCount: 2
Fore
SplineSet
453 729 m 0
 555 729 657 687 730 613 c 0
 800 542 841 441 841 336 c 0
 841 237 799 137 722 61 c 0
 649 -11 554 -50 447 -50 c 0
 349 -50 251 -9 177 65 c 0
 102 139 63 235 63 340 c 0
 63 443 102 539 176 614 c 0
 249 688 349 729 453 729 c 0
453 685 m 0
 363 685 276 649 211 583 c 0
 146 518 111 432 111 344 c 0
 111 248 143 166 208 100 c 0
 276 31 359 -4 452 -4 c 0
 544 -4 627 31 692 97 c 0
 757 163 793 249 793 340 c 0
 793 430 757 518 696 581 c 0
 632 647 543 685 453 685 c 0
249 559 m 1
 473 559 l 2
 578 559 631 522 631 451 c 0
 631 392 590 352 510 338 c 1
 588 323 598 277 620 219 c 0
 637 175 654 159 704 159 c 0
 706 159 707 159 709 159 c 1
 709 122 l 1
 681 118 661 116 648 116 c 0
 616 116 590 122 568 136 c 0
 528 162 524 201 509 242 c 0
 490 293 464 313 410 313 c 0
 406 313 402 313 398 313 c 1
 398 169 l 1
 456 158 l 1
 456 121 l 1
 252 121 l 1
 252 157 l 1
 304 169 l 1
 304 512 l 1
 249 524 l 1
 249 559 l 1
398 519 m 1
 398 355 l 1
 405 354 412 354 419 354 c 0
 491 354 528 384 528 436 c 0
 528 489 490 520 415 520 c 0
 410 520 404 519 398 519 c 1
EndSplineSet
EndChar
StartChar: macron
Encoding: 197 175 127
Width: 500
Flags: MW
HStem: 607 68<150 469 138 481>
VStem: 138 343<607 675>
LayerCount: 2
Fore
SplineSet
150 675 m 1
 481 675 l 1
 469 607 l 1
 138 607 l 1
 150 675 l 1
EndSplineSet
EndChar
StartChar: plusminus
Encoding: 329 177 222
Width: 833
Flags: MW
HStem: 7 82<124 709 124 709> 345 81<124 375 124 375 458 709>
VStem: 375 83<182 345 182 345 426 589>
LayerCount: 2
Fore
SplineSet
458 589 m 1
 458 426 l 1
 709 426 l 1
 709 345 l 1
 458 345 l 1
 458 182 l 1
 375 182 l 1
 375 345 l 1
 124 345 l 1
 124 426 l 1
 375 426 l 1
 375 589 l 1
 458 589 l 1
709 89 m 1
 709 7 l 1
 124 7 l 1
 124 89 l 1
 709 89 l 1
EndSplineSet
EndChar
StartChar: twosuperior
Encoding: 333 178 226
Width: 387
Flags: MW
HStem: 268 61<87 271 87 314> 639 38<195.5 216.5>
VStem: 265 85<536.5 595.5>
LayerCount: 2
Fore
SplineSet
87 329 m 1
 271 329 l 1
 293 383 l 1
 337 383 l 1
 314 268 l 1
 -2 268 l 1
 2 313 l 1
 173 420 265 492 265 576 c 0
 265 615 238 639 195 639 c 0
 184 639 171 637 157 633 c 1
 141 552 l 1
 128 546 115 543 102 543 c 0
 77 543 62 557 62 579 c 0
 62 596 71 614 89 630 c 0
 121 659 170 677 221 677 c 0
 300 677 350 636 350 576 c 0
 350 497 262 420 87 329 c 1
EndSplineSet
EndChar
StartChar: threesuperior
Encoding: 332 179 225
Width: 387
Flags: W
HStem: 261 35<125.5 159.5> 641 37<189 216.5>
VStem: 242 91<380.5 413> 265 91<565.5 599.5>
LayerCount: 2
Fore
SplineSet
224 482 m 1x50
 297 478 333 450 333 397 c 0
 333 364 312 329 273 302 c 0
 236 276 186 261 133 261 c 0
 56 261 8 296 8 333 c 0
 8 358 28 377 55 377 c 0
 63 377 73 375 85 371 c 1
 93 306 l 1
 108 300 120 296 131 296 c 0
 197 296 242 336 242 393 c 0xa0
 242 433 215 456 164 456 c 0
 152 456 139 455 123 452 c 1
 131 496 l 1
 137 495 143 495 148 495 c 0
 221 495 265 531 265 582 c 0
 265 617 238 641 195 641 c 0
 183 641 170 638 157 633 c 1
 144 563 l 1
 129 557 118 554 108 554 c 0
 84 554 68 569 68 590 c 0
 68 632 133 678 230 678 c 0
 309 678 356 639 356 590 c 0
 356 541 309 498 224 482 c 1x50
EndSplineSet
EndChar
StartChar: acute
Encoding: 194 180 124
Width: 500
Flags: MW
HStem: 552 190<248 505 248 505>
VStem: 248 257<552 742>
LayerCount: 2
Fore
SplineSet
382 742 m 1
 505 742 l 1
 315 552 l 1
 248 552 l 1
 382 742 l 1
EndSplineSet
EndChar
StartChar: mu
Encoding: 324 181 217
Width: 578
Flags: MW
HStem: -205 20 -12 81<175 223> 412 20<86 187 187 187 355 457 457 457>
VStem: -53 598<-171.5 154>
LayerCount: 2
Fore
SplineSet
33 182 m 2
 86 432 l 1
 187 432 l 1
 138 204 l 2
 131 172 128 149 128 136 c 0
 128 94 154 69 196 69 c 0
 253 69 285 103 301 177 c 2
 355 432 l 1
 457 432 l 1
 402 172 l 2
 398 153 393 133 393 111 c 0
 393 83 409 67 435 67 c 0
 462 67 481 81 498 111 c 0
 513 138 516 164 534 164 c 0
 542 164 545 159 545 149 c 0
 545 135 535 91 517 58 c 0
 491 12 456 -12 410 -12 c 0
 356 -12 325 24 324 91 c 1
 296 23 252 -12 194 -12 c 0
 130 -12 91 26 84 98 c 1
 46 -107 61 -205 -5 -205 c 0
 -35 -205 -53 -187 -53 -156 c 0
 -53 -104 -5 4 33 182 c 2
EndSplineSet
EndChar
StartChar: paragraph
Encoding: 182 182 114
Width: 492
Flags: MW
HStem: -79 20 628 43<267 466>
VStem: 19 255<395.5 537.5> 347 57<-79 618 -79 623 -79 623>
LayerCount: 2
Fore
SplineSet
267 671 m 2
 466 671 l 1
 466 628 l 1
 404 618 l 1
 404 -79 l 1
 347 -79 l 1
 347 623 l 1
 274 623 l 1
 274 262 l 1
 269 262 264 262 259 262 c 0
 97 262 19 327 19 464 c 0
 19 611 98 671 267 671 c 2
EndSplineSet
EndChar
StartChar: periodcentered
Encoding: 180 183 113
Width: 292
Flags: MW
HStem: 259 154<125.5 167>
VStem: 71 152<313.5 356.5>
LayerCount: 2
Fore
SplineSet
146 413 m 0
 188 413 223 379 223 335 c 0
 223 292 188 259 146 259 c 0
 105 259 71 292 71 335 c 0
 71 378 105 413 146 413 c 0
EndSplineSet
EndChar
StartChar: cedilla
Encoding: 203 184 132
Width: 500
Flags: MW
HStem: -230 50<124 149.5 119.5 179> -110 54<153 232.5>
VStem: 196 82<-146 -128>
LayerCount: 2
Fore
SplineSet
156 0 m 1
 205 0 l 1
 194 -57 l 1
 200 -56 205 -56 210 -56 c 0
 255 -56 278 -76 278 -115 c 0
 278 -177 221 -230 137 -230 c 0
 111 -230 85 -226 58 -219 c 1
 67 -172 l 1
 91 -177 112 -180 127 -180 c 0
 172 -180 196 -162 196 -136 c 0
 196 -120 182 -110 156 -110 c 0
 150 -110 143 -111 135 -112 c 1
 156 0 l 1
EndSplineSet
EndChar
StartChar: onesuperior
Encoding: 328 185 221
Width: 387
Flags: MW
HStem: 268 30<52 280> 605 29<94 94> 665 12
VStem: 52 228<268 298 268 299 268 299>
LayerCount: 2
Fore
SplineSet
249 677 m 1
 288 677 l 1
 212 311 l 1
 219 302 l 1
 280 298 l 1
 280 268 l 1
 52 268 l 1
 52 299 l 1
 122 303 l 1
 132 313 l 1
 195 612 l 1
 187 615 l 1
 94 605 l 1
 94 634 l 1
 249 677 l 1
EndSplineSet
EndChar
StartChar: ordmasculine
Encoding: 235 186 142
Width: 413
Flags: MW
HStem: 317 37<154.5 194.5> 634 36<196.5 235.5>
VStem: 14 97<419.5 490> 279 97<497.5 567.5>
LayerCount: 2
Fore
SplineSet
224 670 m 0
 317 670 376 614 376 526 c 0
 376 469 353 414 311 373 c 0
 273 337 222 317 167 317 c 0
 73 317 14 374 14 463 c 0
 14 517 38 573 80 613 c 0
 117 650 169 670 224 670 c 0
214 634 m 0
 160 634 111 562 111 452 c 0
 111 387 134 354 175 354 c 0
 230 354 279 426 279 534 c 0
 279 601 257 634 214 634 c 0
EndSplineSet
EndChar
StartChar: guillemotright
Encoding: 187 187 119
Width: 450
Flags: W
HStem: 55 370<-13 55 55 188>
VStem: -13 217 188 217<198 282>
LayerCount: 2
Fore
SplineSet
55 425 m 1xc0
 204 282 l 1xc0
 188 198 l 1xa0
 -13 55 l 1
 2 138 l 1
 131 240 l 1
 40 342 l 1
 55 425 l 1xc0
256 425 m 1xa0
 405 282 l 1
 390 198 l 1
 188 55 l 1
 203 138 l 1
 332 240 l 1
 241 342 l 1
 256 425 l 1xa0
EndSplineSet
EndChar
StartChar: onequarter
Encoding: 327 188 220
Width: 905
Flags: W
HStem: -18 11 0 671<179 722 179 722> 101 44<545 545 603 731 535 545 813 874> 295 28<50 268> 367 12 609 28<89 89> 665 11
VStem: 50 218<295 323 295 324 295 324> 179 543<619 671> 535 347<101 145>
LayerCount: 2
Fore
SplineSet
237 676 m 1x0680
 275 676 l 1
 203 335 l 1
 209 326 l 1
 268 323 l 1
 268 295 l 1
 50 295 l 1
 50 324 l 1xbb40
 116 327 l 1
 127 337 l 1
 186 616 l 1
 179 619 l 1
 89 609 l 1
 89 637 l 1
 237 676 l 1x0680
652 671 m 1x4680
 722 671 l 1
 249 0 l 1
 179 0 l 1
 652 671 l 1x4680
801 379 m 1xbb40
 862 379 l 1
 813 145 l 1
 882 145 l 1
 874 101 l 1
 804 101 l 1
 778 -18 l 1
 706 -18 l 1
 731 101 l 1
 535 101 l 1
 545 145 l 1
 801 379 l 1xbb40
776 304 m 1
 603 145 l 1
 741 145 l 1
 776 304 l 1
EndSplineSet
EndChar
StartChar: onehalf
Encoding: 326 189 219
Width: 905
Flags: W
HStem: 0 57<619 795 619 835> 0 671<179 722 179 722 534 722 652 722 652 835> 295 28<50 268> 346 36<722.5 742.5> 609 28<89 89> 665 11
VStem: 50 218<295 323 295 324 295 324> 179 543<619 671> 789 82<250.5 305.5>
LayerCount: 2
Fore
SplineSet
237 676 m 1x9d80
 275 676 l 1
 203 335 l 1
 209 326 l 1
 268 323 l 1
 268 295 l 1
 50 295 l 1
 50 324 l 1x26
 116 327 l 1
 127 337 l 1
 186 616 l 1
 179 619 l 1
 89 609 l 1
 89 637 l 1
 237 676 l 1x9d80
652 671 m 1xdd80
 722 671 l 1
 249 0 l 1
 179 0 l 1
 652 671 l 1xdd80
619 57 m 1x9d80
 795 57 l 1
 816 107 l 1
 857 107 l 1
 835 0 l 1
 534 0 l 1
 538 42 l 1
 701 142 789 209 789 287 c 0
 789 324 763 346 722 346 c 0
 712 346 699 344 686 341 c 1
 670 265 l 1
 658 259 646 256 634 256 c 0
 609 256 595 270 595 291 c 0
 595 306 604 323 621 338 c 0
 652 365 698 382 747 382 c 0
 823 382 871 343 871 287 c 0
 871 214 786 142 619 57 c 1x9d80
EndSplineSet
EndChar
StartChar: threequarters
Encoding: 331 190 224
Width: 905
Flags: W
HStem: -18 11 0 671<179 722 179 722> 101 44<545 545 603 731 535 545 813 874> 289 32<120 152.5> 367 12 643 34<180.5 206.5>
VStem: 179 543 231 87<400 430.5> 253 87<573 604.5> 535 347<101 145>
LayerCount: 2
Fore
SplineSet
214 495 m 1x0480
 283 491 318 465 318 415 c 0
 318 385 298 352 261 326 c 0
 226 303 178 289 127 289 c 0
 54 289 8 321 8 355 c 0
 8 379 27 397 52 397 c 0
 60 397 70 395 81 391 c 1
 89 330 l 1
 103 325 115 321 125 321 c 0
 188 321 231 359 231 412 c 0xb940
 231 449 205 470 157 470 c 0
 146 470 132 469 117 467 c 1
 125 508 l 1
 130 507 136 507 141 507 c 0
 211 507 253 541 253 588 c 0
 253 621 227 643 186 643 c 0
 175 643 163 641 150 636 c 1
 137 570 l 1
 123 565 113 562 103 562 c 0
 81 562 65 576 65 595 c 0
 65 635 127 677 219 677 c 0
 295 677 340 642 340 596 c 0
 340 550 295 509 214 495 c 1x0480
652 671 m 1x42
 722 671 l 1
 249 0 l 1
 179 0 l 1
 652 671 l 1x42
801 379 m 1xb940
 862 379 l 1
 813 145 l 1
 882 145 l 1
 874 101 l 1
 804 101 l 1
 778 -18 l 1
 706 -18 l 1
 731 101 l 1
 535 101 l 1
 545 145 l 1
 801 379 l 1xb940
776 304 m 1
 603 145 l 1
 741 145 l 1
 776 304 l 1
EndSplineSet
EndChar
StartChar: questiondown
Encoding: 191 191 122
Width: 492
Flags: MW
HStem: -7 58<244 247 244 259> 531 152<304.5 344.5 304.5 345.5>
VStem: 6 130<116.5 191.5 116.5 200> 250 150<587 629 587 629>
LayerCount: 2
Fore
SplineSet
325 683 m 0
 364 683 400 650 400 608 c 0
 400 566 366 531 325 531 c 0
 283 531 250 565 250 608 c 0
 250 650 284 683 325 683 c 0
276 483 m 1
 341 483 l 1
 315 348 l 1
 198 310 136 236 136 147 c 0
 136 86 174 51 244 51 c 0
 245 51 246 51 247 51 c 2
 312 164 l 1
 320 165 328 166 335 166 c 0
 377 166 397 148 397 115 c 0
 397 54 320 -7 198 -7 c 0
 77 -7 6 53 6 147 c 0
 6 253 92 341 259 392 c 1
 276 483 l 1
EndSplineSet
EndChar
StartChar: Aring
Encoding: 260 197 153
Width: 634
Flags: MW
HStem: 0 49<-68 147> 236 55<201 383 201 393 170 383> 657 20<339 442 442 442> 732 52<384.5 420 384.5 436> 919 52<385 421>
VStem: -68 353 338 130<833.5 871> 520 92
LayerCount: 2
Fore
SplineSet
403 971 m 0
 469 971 520 920 520 852 c 0
 520 784 469 732 403 732 c 0
 338 732 285 785 285 852 c 0
 285 919 338 971 403 971 c 0
403 919 m 0
 367 919 338 890 338 852 c 0
 338 815 367 784 402 784 c 0
 438 784 468 815 468 852 c 0
 468 890 439 919 403 919 c 0
339 677 m 1
 442 677 l 1
 545 67 l 1
 558 55 l 1
 612 49 l 1
 612 0 l 1
 349 0 l 1
 349 49 l 1
 410 55 l 1
 421 70 l 1
 393 236 l 1
 170 236 l 1
 79 68 l 1
 88 53 l 1
 147 49 l 1
 147 0 l 1
 -68 0 l 1
 -68 48 l 1
 -12 56 l 1
 339 677 l 1
342 551 m 1
 201 291 l 1
 383 291 l 1
 342 551 l 1
EndSplineSet
EndChar
StartChar: AE
Encoding: 225 198 137
Width: 894
Flags: MW
HStem: 0 58<498 718 498 801> 252 57<238 413 195 425> 318 57<557 664 547 676> 614 57<603 787 603 603>
VStem: -102 997<0 671 48 671>
LayerCount: 2
Fore
SplineSet
314 671 m 1
 895 671 l 1
 863 514 l 1
 800 514 l 1
 798 599 l 1
 787 614 l 1
 603 614 l 1
 557 375 l 1
 676 375 l 1
 692 390 l 1
 715 462 l 1
 772 462 l 1
 728 231 l 1
 675 231 l 1
 675 304 l 1
 664 318 l 1
 547 318 l 1
 498 58 l 1
 718 58 l 1
 734 72 l 1
 770 179 l 1
 837 179 l 1
 801 0 l 1
 300 0 l 1
 300 47 l 1
 362 54 l 1
 378 70 l 1
 413 252 l 1
 195 252 l 1
 57 71 l 1
 61 56 l 1
 123 48 l 1
 123 0 l 1
 -102 0 l 1
 -102 48 l 1
 -36 61 l 1
 383 602 l 1
 375 616 l 1
 314 623 l 1
 314 671 l 1
484 631 m 1
 238 309 l 1
 425 309 l 1
 484 631 l 1
EndSplineSet
EndChar
StartChar: Eth
Encoding: 317 208 210
Width: 702
Flags: MW
HStem: 0 57<181 222 222 225> 324 60<33 103 22 115 242 359> 615 56<285 285 285 339>
VStem: 520 140<370 481.5>
LayerCount: 2
Fore
SplineSet
82 671 m 1
 352 671 l 2
 555 671 660 581 660 416 c 0
 660 299 615 188 536 108 c 0
 460 32 361 0 225 0 c 2
 -25 0 l 1
 -25 49 l 1
 41 54 l 1
 55 69 l 1
 103 324 l 1
 22 324 l 1
 33 384 l 1
 115 384 l 1
 156 603 l 1
 146 618 l 1
 82 623 l 1
 82 671 l 1
285 615 m 1
 242 384 l 1
 371 384 l 1
 359 324 l 1
 230 324 l 1
 181 57 l 1
 222 57 l 2
 321 57 391 88 440 155 c 0
 488 221 520 321 520 419 c 0
 520 544 453 615 339 615 c 2
 285 615 l 1
EndSplineSet
EndChar
StartChar: Oslash
Encoding: 233 216 140
Width: 729
Flags: MW
HStem: -13 58<303.5 354.5 303.5 366> 626 57<372.5 423>
VStem: 37 133<241 310.5 241 314> 556 134<360.5 441>
LayerCount: 2
Fore
SplineSet
601 750 m 1
 643 722 l 1
 584 633 l 1
 654 580 690 503 690 409 c 0
 690 302 655 199 590 120 c 0
 519 33 421 -13 311 -13 c 0
 258 -13 211 -2 171 20 c 1
 103 -81 l 1
 66 -50 l 1
 130 47 l 1
 69 103 37 176 37 256 c 0
 37 372 71 471 140 554 c 0
 208 636 308 683 417 683 c 0
 464 683 505 675 540 658 c 1
 601 750 l 1
496 593 m 1
 471 615 441 626 405 626 c 0
 340 626 289 593 244 524 c 0
 199 456 170 358 170 263 c 0
 170 219 177 177 192 137 c 1
 496 593 l 1
526 550 m 1
 221 91 l 1
 249 60 283 45 324 45 c 0
 385 45 439 78 484 146 c 0
 527 211 556 308 556 413 c 0
 556 469 547 514 526 550 c 1
EndSplineSet
EndChar
StartChar: Thorn
Encoding: 318 222 211
Width: 576
Flags: MW
HStem: 0 48<-26 251> 123 57<242.5 287 222.5 344.5> 487 56<276.5 314 314 325.5> 619 46<80 356 80 356>
VStem: 416 136<312 411>
LayerCount: 2
Fore
SplineSet
80 665 m 1
 356 665 l 1
 356 619 l 1
 291 613 l 1
 278 600 l 1
 267 543 l 1
 314 543 l 2
 474 543 552 492 552 375 c 0
 552 231 438 123 251 123 c 0
 234 123 213 123 187 125 c 1
 177 69 l 1
 186 53 l 1
 251 48 l 1
 251 0 l 1
 -26 0 l 1
 -26 49 l 1
 37 54 l 1
 52 67 l 1
 152 597 l 1
 142 614 l 1
 80 619 l 1
 80 665 l 1
256 486 m 1
 198 181 l 1
 208 180 218 180 227 180 c 0
 347 180 416 251 416 373 c 0
 416 449 371 487 280 487 c 0
 273 487 264 487 256 486 c 1
EndSplineSet
EndChar
StartChar: germandbls
Encoding: 251 223 148
Width: 622
Flags: MW
HStem: -213 70<-109 -14> -10 52<373 409 373 434> 681 56<339.5 408.5>
VStem: 285 117<368 374> 464 108<110 133>
LayerCount: 2
Fore
SplineSet
539 454 m 1
 529 455 519 455 510 455 c 0
 438 455 402 431 402 383 c 0
 402 353 425 333 463 304 c 0
 525 256 572 227 572 157 c 0
 572 63 490 -10 378 -10 c 0
 286 -10 224 40 224 91 c 0
 224 132 250 158 288 158 c 0
 307 158 324 149 340 133 c 1
 323 66 l 1
 341 50 362 42 384 42 c 0
 434 42 464 71 464 112 c 0
 464 154 434 174 387 207 c 0
 323 252 285 284 285 336 c 0
 285 412 340 470 433 484 c 1
 449 533 456 572 456 603 c 0
 456 653 431 681 386 681 c 0
 293 681 242 594 216 419 c 2
 178 159 l 2
 165 68 147 -6 109 -68 c 0
 52 -159 -28 -213 -89 -213 c 0
 -129 -213 -161 -185 -161 -148 c 0
 -161 -121 -147 -99 -121 -87 c 1
 -14 -143 l 1
 22 -94 39 -5 57 124 c 2
 97 407 l 2
 128 626 231 737 400 737 c 0
 503 737 565 679 565 588 c 0
 565 554 556 510 539 454 c 1
EndSplineSet
EndChar
StartChar: aring
Encoding: 288 229 181
Width: 572
Flags: MW
HStem: -8 81<117 237.5> 446 48<270.5 318.5 255.5 319.5> 546 50<310.5 344 310.5 358.5> 723 50<310.5 344>
VStem: 18 128<150 210> 215 51<641.5 677 641.5 692> 389 50<641.5 676.5>
LayerCount: 2
Fore
SplineSet
453 493 m 1
 512 493 l 1
 506 475 493 424 478 341 c 2
 448 179 l 2
 442 146 439 122 439 109 c 0
 439 75 458 55 481 55 c 0
 501 55 523 59 547 66 c 1
 547 29 l 1
 484 6 434 -6 396 -6 c 0
 347 -6 321 19 321 67 c 0
 321 68 321 70 321 72 c 1
 265 19 211 -8 162 -8 c 0
 72 -8 18 59 18 174 c 0
 18 246 38 312 78 373 c 0
 128 449 211 494 300 494 c 0
 337 494 375 485 416 469 c 1
 453 493 l 1
330 445 m 2
 326 445 322 446 317 446 c 0
 224 446 146 340 146 188 c 0
 146 112 173 73 222 73 c 0
 253 73 285 89 323 120 c 1
 370 385 l 1
 330 445 l 2
327 773 m 0
 390 773 439 723 439 659 c 0
 439 595 390 546 327 546 c 0
 264 546 215 595 215 662 c 0
 215 722 265 773 327 773 c 0
327 723 m 0
 294 723 266 695 266 659 c 0
 266 624 294 596 327 596 c 0
 361 596 389 624 389 659 c 0
 389 694 361 723 327 723 c 0
EndSplineSet
EndChar
StartChar: ae
Encoding: 241 230 143
Width: 719
Flags: W
HStem: -8 77<82.5 205.5> 224 43 238 48 443 51<537.5 546>
VStem: 5 124<110 153> 284 115<167 189> 579 105<364.5 409>
LayerCount: 2
Fore
SplineSet
308 68 m 1x56
 241 17 181 -8 116 -8 c 0
 49 -8 5 36 5 100 c 0
 5 206 102 262 301 286 c 1xac
 311 338 l 2
 313 348 314 360 314 373 c 0
 314 416 288 440 243 440 c 0
 231 440 217 438 200 434 c 1
 181 337 l 1
 85 337 l 2
 67 337 58 342 58 355 c 0
 58 425 148 493 270 493 c 0
 332 493 372 480 403 434 c 1
 462 472 511 494 564 494 c 0
 639 494 684 451 684 385 c 0
 684 288 587 224 408 224 c 0
 406 224 403 224 400 224 c 0
 399 215 399 207 399 199 c 0
 399 113 438 68 505 68 c 0
 550 68 601 92 659 139 c 1
 659 77 l 1
 588 20 516 -9 450 -9 c 0
 386 -9 338 17 308 68 c 1x56
293 106 m 1xac
 287 131 284 155 284 179 c 0
 284 199 286 218 290 238 c 1
 182 223 129 190 129 129 c 0
 129 91 152 69 192 69 c 0
 219 69 253 81 293 106 c 1xac
404 267 m 1x56
 516 277 579 335 579 394 c 0
 579 424 560 443 532 443 c 0
 483 443 429 382 404 267 c 1x56
EndSplineSet
EndChar
StartChar: eth
Encoding: 323 240 216
Width: 561
Flags: MW
HStem: -11 53<212.5 283 212.5 302> 435 47<269 308.5 265.5 325> 720 20<336 336>
VStem: 26 129<133.5 234.5> 382 124<225.5 332>
LayerCount: 2
Fore
SplineSet
355 478 m 1
 342 511 328 543 312 574 c 1
 180 523 l 1
 164 565 l 1
 287 612 l 1
 257 659 l 1
 176 675 l 1
 179 709 l 1
 336 740 l 1
 390 654 l 1
 507 699 l 1
 523 657 l 1
 415 614 l 1
 475 508 506 411 506 314 c 0
 506 118 386 -11 218 -11 c 0
 104 -11 26 71 26 194 c 0
 26 275 58 352 116 409 c 0
 165 457 229 482 302 482 c 0
 315 482 333 480 355 478 c 1
366 428 m 1
 347 433 331 435 319 435 c 0
 219 435 155 337 155 179 c 0
 155 88 184 42 241 42 c 0
 325 42 382 137 382 314 c 0
 382 350 376 389 366 428 c 1
EndSplineSet
EndChar
StartChar: oslash
Encoding: 249 248 146
Width: 550
Flags: MW
HStem: -11 50<221 259> 443 50<264 300>
VStem: 19 122<176.5 236.5> 379 122<245.5 310.5>
LayerCount: 2
Fore
SplineSet
435 567 m 1
 472 542 l 1
 421 459 l 1
 473 424 501 364 501 287 c 0
 501 204 469 126 412 68 c 0
 362 17 295 -11 223 -11 c 0
 193 -11 166 -7 142 2 c 1
 87 -86 l 1
 51 -62 l 1
 101 21 l 1
 47 61 19 120 19 196 c 0
 19 277 51 356 108 414 c 0
 159 466 225 493 303 493 c 0
 333 493 358 489 381 479 c 1
 435 567 l 1
347 418 m 1
 331 435 312 443 288 443 c 0
 208 443 141 341 141 193 c 0
 141 160 145 129 153 103 c 1
 347 418 l 1
368 374 m 1
 176 63 l 1
 189 47 208 39 234 39 c 0
 314 39 379 140 379 294 c 0
 379 327 376 354 368 374 c 1
EndSplineSet
EndChar
StartChar: thorn
Encoding: 330 254 223
Width: 565
Flags: MW
HStem: -218 39<-63 216> -3 56<220 267.5> 419 75<301.5 424.5> 664 33<61 61> 716 20<237 280 280 280>
VStem: 394 125<271.5 342.5>
LayerCount: 2
Fore
SplineSet
237 736 m 1
 280 736 l 1
 272 692 265 655 260 626 c 2
 224 425 l 1
 280 471 334 494 385 494 c 0
 464 494 519 428 519 319 c 0
 519 224 490 148 428 83 c 0
 377 29 304 -3 231 -3 c 0
 205 -3 179 3 153 13 c 1
 123 -161 l 1
 216 -179 l 1
 216 -218 l 1
 -63 -218 l 1
 -63 -178 l 1
 -2 -162 l 1
 7 -149 l 1
 148 653 l 1
 61 664 l 1
 61 697 l 1
 237 736 l 1
162 70 m 1
 187 58 209 53 231 53 c 0
 318 53 394 158 394 306 c 0
 394 379 363 419 315 419 c 0
 288 419 256 405 217 376 c 1
 162 70 l 1
EndSplineSet
EndChar
StartChar: dotlessi
Encoding: 245 305 144
Width: 318
Flags: MW
HStem: -7 66<97.5 231.5> 420 36<29 29> 473 20<200 244 244 244>
VStem: 48 127<45.5 119>
LayerCount: 2
Fore
SplineSet
200 493 m 1
 244 493 l 1
 180 155 l 2
 177 138 175 124 175 114 c 0
 175 78 192 59 224 59 c 0
 239 59 263 64 293 73 c 1
 293 32 l 1
 230 7 175 -7 122 -7 c 0
 73 -7 48 20 48 71 c 0
 48 88 52 111 57 138 c 2
 111 407 l 1
 29 420 l 1
 29 456 l 1
 200 493 l 1
EndSplineSet
EndChar
StartChar: Lslash
Encoding: 232 321 139
Width: 529
Flags: MW
HStem: 0 58<178 359 178 450> 623 48<81 360>
VStem: -25 513<0 197 48 197>
LayerCount: 2
Fore
SplineSet
81 671 m 1
 360 671 l 1
 360 623 l 1
 297 618 l 1
 280 605 l 1
 247 430 l 1
 345 485 l 1
 371 437 l 1
 235 362 l 1
 178 58 l 1
 359 58 l 1
 377 72 l 1
 416 197 l 1
 488 197 l 1
 450 0 l 1
 -25 0 l 1
 -25 48 l 1
 37 54 l 1
 53 67 l 1
 94 287 l 1
 29 250 l 1
 7 299 l 1
 107 356 l 1
 154 605 l 1
 144 619 l 1
 81 624 l 1
 81 671 l 1
EndSplineSet
EndChar
StartChar: lslash
Encoding: 248 322 145
Width: 307
Flags: MW
HStem: -9 64<92 210.5> 664 33<55 55> 716 20<231 275 275 275>
VStem: 38 120<51.5 115.5>
LayerCount: 2
Fore
SplineSet
231 736 m 1
 275 736 l 1
 267 689 260 654 256 633 c 2
 219 440 l 1
 309 487 l 1
 331 443 l 1
 207 378 l 1
 169 179 l 2
 163 149 158 125 158 106 c 0
 158 75 176 55 199 55 c 0
 222 55 249 60 280 70 c 1
 280 31 l 1
 207 5 154 -9 119 -9 c 0
 65 -9 38 22 38 81 c 0
 38 95 39 109 42 125 c 2
 76 311 l 1
 4 271 l 1
 -16 316 l 1
 87 371 l 1
 142 653 l 1
 55 664 l 1
 55 697 l 1
 231 736 l 1
EndSplineSet
EndChar
StartChar: OE
Encoding: 234 338 141
Width: 1003
Flags: W
HStem: -12 65<278 322> 0 58<602 822 602 906> 318 57<662 766 651 778> 613 58<707 890 707 707> 619 64<372 433.5 353 444>
VStem: 38 139<191 300.5 191 322.5>
LayerCount: 2
Fore
SplineSet
544 418 m 0x8c
 544 546 487 619 401 619 c 0
 343 619 289 582 245 509 c 0
 203 440 177 346 177 255 c 0
 177 127 235 53 321 53 c 0
 379 53 434 90 477 161 c 0
 517 227 544 322 544 418 c 0x8c
577 576 m 1
 594 671 l 1
 998 671 l 1
 967 515 l 1
 903 515 l 1
 902 600 l 1
 890 613 l 1
 707 613 l 1
 662 375 l 1
 778 375 l 1
 796 389 l 1
 819 462 l 1
 876 462 l 1
 832 231 l 1
 778 231 l 1
 779 305 l 1
 766 318 l 1
 651 318 l 1
 602 58 l 1
 822 58 l 1
 836 72 l 1
 875 180 l 1
 941 180 l 1
 906 0 l 1
 470 0 l 1x70
 483 73 l 1
 421 16 358 -12 286 -12 c 0
 137 -12 38 95 38 251 c 0
 38 394 90 518 181 600 c 0
 241 654 315 683 391 683 c 0
 476 683 538 647 577 576 c 1
EndSplineSet
EndChar
StartChar: oe
Encoding: 250 339 147
Width: 795
Flags: W
HStem: -10 53<206.5 242.5> -10 77<546.5 560> 226 42 442 51<608.5 622>
VStem: 20 129<136 234.5> 366 108<158 348> 654 105<364 409>
LayerCount: 2
Fore
SplineSet
287 442 m 0x9c
 212 442 149 337 149 181 c 0
 149 91 181 43 232 43 c 0
 302 43 366 149 366 303 c 0
 366 393 335 442 287 442 c 0x9c
454 412 m 1
 511 466 575 493 642 493 c 0
 713 493 759 449 759 385 c 0
 759 290 664 226 494 226 c 0
 488 226 482 226 475 226 c 1
 474 217 474 208 474 200 c 0
 474 116 514 67 579 67 c 0x76
 623 67 676 91 735 140 c 1
 735 78 l 1
 662 19 592 -10 528 -10 c 0
 464 -10 415 17 391 64 c 1
 339 13 279 -10 206 -10 c 0
 96 -10 20 71 20 192 c 0
 20 277 52 357 105 412 c 0
 156 464 224 494 292 494 c 0
 366 494 418 468 454 412 c 1
479 268 m 1x76
 589 276 654 334 654 394 c 0
 654 424 636 442 608 442 c 0
 557 442 504 382 479 268 c 1x76
EndSplineSet
EndChar
StartChar: florin
Encoding: 166 402 100
Width: 586
Flags: MW
HStem: -148 56<-5.5 91> 309 60<109 213 103 221 344 491> 628 55<434 526.5>
VStem: -63 648
LayerCount: 2
Fore
SplineSet
509 533 m 1
 434 628 l 1
 389 595 374 541 360 463 c 2
 344 369 l 1
 497 369 l 1
 491 309 l 1
 334 309 l 1
 311 130 272 7 192 -69 c 0
 137 -121 74 -148 20 -148 c 0
 -31 -148 -63 -122 -63 -89 c 0
 -63 -58 -39 -26 5 -7 c 1
 91 -92 l 1
 139 -54 159 11 176 105 c 2
 213 309 l 1
 103 309 l 1
 109 369 l 1
 221 369 l 1
 235 441 l 2
 252 528 290 587 358 634 c 0
 403 665 462 683 501 683 c 0
 552 683 585 655 585 617 c 0
 585 584 559 555 509 533 c 1
EndSplineSet
EndChar
StartChar: circumflex
Encoding: 195 710 125
Width: 500
Flags: MW
HStem: 552 190<138 372 138 372 369 372 285 446 369 369>
VStem: 138 308<552 552>
LayerCount: 2
Fore
SplineSet
285 742 m 1
 372 742 l 1
 446 552 l 1
 369 552 l 1
 316 677 l 1
 216 552 l 1
 138 552 l 1
 285 742 l 1
EndSplineSet
EndChar
StartChar: caron
Encoding: 207 711 135
Width: 500
Flags: MW
HStem: 551 190<248 252 175 336 248 248>
VStem: 175 307<741 741>
LayerCount: 2
Fore
SplineSet
175 741 m 1
 252 741 l 1
 304 616 l 1
 405 741 l 1
 482 741 l 1
 336 551 l 1
 248 551 l 1
 175 741 l 1
EndSplineSet
EndChar
StartChar: breve
Encoding: 198 728 128
Width: 500
Flags: MW
HStem: 567 71<278 345 278 350.5>
VStem: 172 305<719 719>
LayerCount: 2
Fore
SplineSet
172 719 m 1
 223 718 l 1
 222 704 222 696 222 692 c 0
 222 652 247 638 309 638 c 0
 381 638 413 656 426 718 c 1
 477 719 l 1
 458 611 405 567 296 567 c 0
 207 567 167 596 167 667 c 0
 167 680 169 698 172 719 c 1
EndSplineSet
EndChar
StartChar: dotaccent
Encoding: 199 729 129
Width: 500
Flags: MW
HStem: 576 137<285.5 321>
VStem: 237 132<625.5 663 625.5 663>
LayerCount: 2
Fore
SplineSet
303 713 m 0
 339 713 369 682 369 644 c 0
 369 607 339 576 303 576 c 0
 268 576 237 606 237 644 c 0
 237 682 267 713 303 713 c 0
EndSplineSet
EndChar
StartChar: ring
Encoding: 202 730 131
Width: 500
Flags: MW
HStem: 552 50<296 330.5 296 345> 729 50<296 331>
VStem: 200 50<648.5 684 648.5 698> 377 50<649 683.5>
LayerCount: 2
Fore
SplineSet
313 779 m 0
 377 779 427 730 427 666 c 0
 427 603 377 552 313 552 c 0
 250 552 200 603 200 666 c 0
 200 730 249 779 313 779 c 0
313 729 m 0
 279 729 250 702 250 666 c 0
 250 631 279 602 313 602 c 0
 348 602 377 632 377 666 c 0
 377 701 349 729 313 729 c 0
EndSplineSet
EndChar
StartChar: ogonek
Encoding: 206 731 134
Width: 500
Flags: MW
HStem: -224 72<143.5 213.5> -20 20<180 234 234 234>
VStem: 83 81<-179 -98>
LayerCount: 2
Fore
SplineSet
234 0 m 1
 187 -37 164 -78 164 -118 c 0
 164 -137 181 -152 210 -152 c 0
 217 -152 228 -151 242 -149 c 1
 229 -217 l 1
 209 -222 191 -224 173 -224 c 0
 114 -224 83 -199 83 -159 c 0
 83 -107 116 -49 180 0 c 1
 234 0 l 1
EndSplineSet
EndChar
StartChar: tilde
Encoding: 196 732 126
Width: 500
Flags: MW
HStem: 570 152
VStem: 132 353<570 722>
LayerCount: 2
Fore
SplineSet
432 722 m 1
 485 722 l 1
 472 634 430 587 373 587 c 0
 311 587 266 633 236 633 c 0
 210 633 192 611 187 570 c 1
 132 570 l 1
 144 658 187 706 245 706 c 0
 303 706 347 659 381 659 c 0
 410 659 426 680 432 722 c 1
EndSplineSet
EndChar
StartChar: hungarumlaut
Encoding: 205 733 133
Width: 500
Flags: W
HStem: 552 190<150 396 150 396 282 396 284 349>
VStem: 150 246<552 742> 282 295<552 742>
LayerCount: 2
Fore
SplineSet
284 742 m 1xc0
 396 742 l 1
 209 552 l 1
 150 552 l 1
 284 742 l 1xc0
450 742 m 1xa0
 577 742 l 1
 349 552 l 1
 282 552 l 1
 450 742 l 1xa0
EndSplineSet
EndChar
StartChar: endash
Encoding: 177 8211 110
Width: 500
Flags: MW
HStem: 196 90<-9 481 -25 498>
VStem: -25 523<196 286>
LayerCount: 2
Fore
SplineSet
-9 286 m 1
 498 286 l 1
 481 196 l 1
 -25 196 l 1
 -9 286 l 1
EndSplineSet
EndChar
StartChar: emdash
Encoding: 208 8212 136
Width: 1000
Flags: MW
HStem: 196 90<-5 986 -22 1000>
VStem: -22 1022<196 286>
LayerCount: 2
Fore
SplineSet
1000 286 m 1
 986 196 l 1
 -22 196 l 1
 -5 286 l 1
 1000 286 l 1
EndSplineSet
EndChar
StartChar: quoteleft
Encoding: 96 8216 64
Width: 261
Flags: MW
HStem: 395 303<127.5 265>
VStem: 76 156<455 484.5 455 515>
LayerCount: 2
Fore
SplineSet
265 698 m 1
 281 669 l 1
 205 627 165 575 161 515 c 1
 221 515 l 1
 228 504 232 491 232 478 c 0
 232 432 197 395 150 395 c 0
 105 395 76 425 76 474 c 0
 76 556 143 649 265 698 c 1
EndSplineSet
EndChar
StartChar: quoteright
Encoding: 39 8217 7
Width: 261
Flags: MW
HStem: 395 303<80 217.5>
VStem: 113 155<607.5 637.5>
LayerCount: 2
Fore
SplineSet
80 395 m 1
 64 425 l 1
 140 467 181 519 184 578 c 1
 124 578 l 1
 117 589 113 601 113 614 c 0
 113 661 148 698 195 698 c 0
 240 698 268 668 268 619 c 0
 268 537 202 444 80 395 c 1
EndSplineSet
EndChar
StartChar: quotesinglbase
Encoding: 184 8218 116
Width: 261
Flags: MW
HStem: -174 303<-37 99.5>
VStem: -5 156<39.5 69>
LayerCount: 2
Fore
SplineSet
-37 -174 m 1
 -54 -144 l 1
 22 -102 62 -50 66 10 c 1
 6 10 l 1
 -1 21 -5 33 -5 46 c 0
 -5 92 30 129 77 129 c 0
 122 129 151 99 151 51 c 0
 151 -32 85 -125 -37 -174 c 1
EndSplineSet
EndChar
StartChar: quotedblleft
Encoding: 170 8220 104
Width: 481
Flags: MW
HStem: 395 303<128 267 267 395.5>
VStem: 78 156<455.5 485.5 455.5 515.5> 298 157<456.5 485.5 456.5 515>
LayerCount: 2
Fore
SplineSet
267 698 m 1
 282 668 l 1
 205 626 165 575 162 515 c 1
 223 515 l 1
 230 504 234 492 234 479 c 0
 234 432 198 395 151 395 c 0
 105 395 78 426 78 475 c 0
 78 556 145 649 267 698 c 1
487 698 m 1
 503 668 l 1
 421 622 386 570 383 515 c 1
 444 515 l 1
 451 503 455 492 455 479 c 0
 455 434 419 395 372 395 c 0
 327 395 298 426 298 474 c 0
 298 556 365 649 487 698 c 1
EndSplineSet
EndChar
StartChar: quotedblright
Encoding: 186 8221 118
Width: 481
Flags: MW
HStem: 395 303<80 217.5 171.5 301>
VStem: 113 156<608.5 637.5> 334 156<608.5 638>
LayerCount: 2
Fore
SplineSet
80 395 m 1
 64 425 l 1
 141 467 181 519 184 578 c 1
 124 578 l 1
 117 590 113 602 113 615 c 0
 113 660 148 698 195 698 c 0
 240 698 269 667 269 619 c 0
 269 537 202 444 80 395 c 1
301 395 m 1
 285 425 l 1
 362 467 402 519 405 578 c 1
 344 578 l 1
 337 589 334 602 334 615 c 0
 334 661 369 698 416 698 c 0
 461 698 490 668 490 619 c 0
 490 537 423 444 301 395 c 1
EndSplineSet
EndChar
StartChar: quotedblbase
Encoding: 185 8222 117
Width: 481
Flags: MW
HStem: -174 303<-35 103 56.5 186>
VStem: -2 156<39.5 69> 219 156<38.5 68.5>
LayerCount: 2
Fore
SplineSet
-35 -174 m 1
 -51 -144 l 1
 25 -102 65 -50 69 10 c 1
 9 10 l 1
 2 21 -2 33 -2 46 c 0
 -2 92 33 129 80 129 c 0
 126 129 154 99 154 51 c 0
 154 -31 87 -125 -35 -174 c 1
186 -174 m 1
 170 -144 l 1
 247 -101 287 -50 290 10 c 1
 230 10 l 1
 222 20 219 32 219 45 c 0
 219 92 254 129 301 129 c 0
 347 129 375 99 375 51 c 0
 375 -30 308 -125 186 -174 c 1
EndSplineSet
EndChar
StartChar: dagger
Encoding: 178 8224 111
Width: 500
Flags: MW
HStem: -129 20 459 43<273 282 282 282> 698 20<322 322>
LayerCount: 2
Fore
SplineSet
322 718 m 1
 364 642 l 1
 290 502 l 1
 273 502 l 1
 252 642 l 1
 322 718 l 1
125 538 m 1
 261 490 l 1
 257 471 l 1
 106 428 l 1
 45 483 l 1
 125 538 l 1
447 538 m 1
 510 483 l 1
 428 428 l 1
 294 471 l 1
 297 490 l 1
 447 538 l 1
265 459 m 1
 282 459 l 1
 303 294 l 1
 170 -129 l 1
 152 -129 l 1
 181 294 l 1
 265 459 l 1
EndSplineSet
EndChar
StartChar: daggerdbl
Encoding: 179 8225 112
Width: 500
Flags: W
HStem: -132 20 84 43<204 212 212 212> 460 42<275 282 282 282> 698 20<323 323>
LayerCount: 2
Fore
SplineSet
323 718 m 1
 363 642 l 1
 291 502 l 1
 275 502 l 1
 256 642 l 1
 323 718 l 1
125 537 m 1
 261 490 l 1
 257 471 l 1
 106 430 l 1
 45 483 l 1
 125 537 l 1
447 537 m 1xf0
 510 483 l 1
 428 430 l 1
 294 471 l 1
 297 490 l 1
 447 537 l 1xf0
267 460 m 1
 282 460 l 1
 305 294 l 1
 219 127 l 1
 204 127 l 1
 178 294 l 1
 267 460 l 1
55 159 m 1
 191 112 l 1
 188 94 l 1
 36 52 l 1
 -25 106 l 1
 55 159 l 1
377 159 m 1
 441 106 l 1
 358 52 l 1
 224 94 l 1
 228 112 l 1
 377 159 l 1
196 84 m 1xf0
 212 84 l 1
 230 -56 l 1
 162 -132 l 1
 124 -56 l 1
 196 84 l 1xf0
EndSplineSet
EndChar
StartChar: ellipsis
Encoding: 188 8230 120
Width: 1000
Flags: MW
HStem: -6 155<97.5 139 430.5 472 764.5 806>
VStem: 42 152<49.5 92.5> 375 152<49.5 92.5> 709 152<49.5 92.5>
LayerCount: 2
Fore
SplineSet
118 149 m 0
 161 149 194 115 194 71 c 0
 194 27 160 -6 118 -6 c 0
 77 -6 42 28 42 71 c 0
 42 114 76 149 118 149 c 0
451 149 m 0
 494 149 527 115 527 71 c 0
 527 27 493 -6 451 -6 c 0
 410 -6 375 28 375 71 c 0
 375 114 409 149 451 149 c 0
785 149 m 0
 828 149 861 115 861 71 c 0
 861 27 827 -6 785 -6 c 0
 744 -6 709 28 709 71 c 0
 709 114 743 149 785 149 c 0
EndSplineSet
EndChar
StartChar: perthousand
Encoding: 189 8240 121
Width: 1291
Flags: W
HStem: -12 45<625 656 625 695 1022 1053> 263 45<180.5 222 180.5 250> 363 44<686 717 1082.5 1113> 638 45<240.5 271>
VStem: 55 93<363 421 363 487.5> 303 97<482.5 583.5> 501 93<87 145 87 212.5> 749 97<249 306.5 181 308.5> 897 94<87.5 146 87.5 212> 1146 97<249 305.5 180.5 308>
LayerCount: 2
Fore
SplineSet
265 683 m 0
 348 683 400 626 400 543 c 0
 400 375 310 263 190 263 c 0
 108 263 55 319 55 403 c 0
 55 572 146 683 265 683 c 0
681 671 m 1
 757 671 l 1
 218 0 l 1
 142 0 l 1
 681 671 l 1
255 638 m 0xffc0
 226 638 202 615 183 569 c 0
 161 518 148 452 148 390 c 0
 148 336 164 308 197 308 c 0
 247 308 303 409 303 556 c 0
 303 611 287 638 255 638 c 0xffc0
711 407 m 0
 795 407 846 352 846 261 c 0
 846 101 754 -12 636 -12 c 0
 553 -12 501 45 501 129 c 0
 501 296 592 407 711 407 c 0
1108 407 m 0
 1192 407 1243 351 1243 260 c 0
 1243 101 1151 -12 1032 -12 c 0
 949 -12 897 44 897 128 c 0
 897 296 989 407 1108 407 c 0
701 363 m 0
 671 363 648 340 629 294 c 0
 607 241 594 176 594 114 c 0
 594 60 609 33 641 33 c 0
 671 33 695 56 715 102 c 0
 736 150 749 217 749 281 c 0
 749 336 733 363 701 363 c 0
1097 363 m 0
 1068 363 1044 340 1025 294 c 0
 1003 241 991 177 991 115 c 0
 991 60 1006 33 1038 33 c 0
 1068 33 1091 56 1111 102 c 0
 1131 150 1146 217 1146 281 c 0
 1146 335 1129 363 1097 363 c 0
EndSplineSet
EndChar
StartChar: guilsinglleft
Encoding: 172 8249 106
Width: 266
Flags: MW
HStem: 55 370<159 227>
VStem: 10 217
LayerCount: 2
Fore
SplineSet
227 425 m 1
 212 342 l 1
 83 240 l 1
 174 138 l 1
 159 55 l 1
 10 198 l 1
 26 282 l 1
 227 425 l 1
EndSplineSet
EndChar
StartChar: guilsinglright
Encoding: 173 8250 107
Width: 266
Flags: MW
HStem: 55 370<-13 55>
VStem: -13 217
LayerCount: 2
Fore
SplineSet
55 425 m 1
 204 282 l 1
 188 198 l 1
 -13 55 l 1
 2 138 l 1
 131 240 l 1
 40 342 l 1
 55 425 l 1
EndSplineSet
EndChar
StartChar: fraction
Encoding: 164 8260 98
Width: 167
Flags: MW
HStem: 0 671<-190 353 -190 353>
VStem: -190 543
LayerCount: 2
Fore
SplineSet
283 671 m 1
 353 671 l 1
 -120 0 l 1
 -190 0 l 1
 283 671 l 1
EndSplineSet
EndChar
StartChar: trademark
Encoding: 312 8482 205
Width: 817
Flags: MW
HStem: 399 24<166 295 166 166> 637 25<158 202 158 158 259 304 259 259>
VStem: 202 57<430 637 430 637 430 637> 407 31<429 631 631 631> 636 55<429 631 429 632 429 632>
LayerCount: 2
Fore
SplineSet
114 662 m 1
 348 662 l 1
 348 588 l 1
 319 588 l 1
 311 632 l 1
 304 637 l 1
 259 637 l 1
 259 430 l 1
 295 423 l 1
 295 399 l 1
 166 399 l 1
 166 423 l 1
 202 429 l 1
 202 637 l 1
 158 637 l 1
 150 632 l 1
 144 588 l 1
 114 588 l 1
 114 662 l 1
375 662 m 1
 489 662 l 1
 489 649 l 1
 550 478 l 1
 611 649 l 1
 611 662 l 1
 724 662 l 1
 724 637 l 1
 691 631 l 1
 691 429 l 1
 724 423 l 1
 724 399 l 1
 607 399 l 1
 607 423 l 1
 636 429 l 1
 636 632 l 1
 551 399 l 1
 521 399 l 1
 438 632 l 1
 438 429 l 1
 469 423 l 1
 469 399 l 1
 375 399 l 1
 375 423 l 1
 407 429 l 1
 407 631 l 1
 375 637 l 1
 375 662 l 1
EndSplineSet
EndChar
StartChar: minus
Encoding: 316 8722 209
Width: 833
Flags: MW
HStem: 257 83<124 709 124 709>
VStem: 124 585<257 340 257 340>
LayerCount: 2
Fore
SplineSet
709 340 m 1
 709 257 l 1
 124 257 l 1
 124 340 l 1
 709 340 l 1
EndSplineSet
EndChar
StartChar: fi
Encoding: 174 64257 108
Width: 621
Flags: W
HStem: -214 68<-104 -6> -7 66<403.5 538> 409 58<225 417> 587 134<511 543> 686 48<300 300>
VStem: -154 748
LayerCount: 2
Fore
SplineSet
531 721 m 0x14
 570 721 594 695 594 658 c 0
 594 618 563 587 523 587 c 0
 486 587 459 612 459 648 c 0
 459 689 491 721 531 721 c 0x14
389 602 m 1xec
 300 686 l 1
 271 651 245 577 225 467 c 1
 411 467 l 1
 506 493 l 1
 550 493 l 1
 486 155 l 2
 483 140 481 126 481 114 c 0
 481 78 498 59 530 59 c 0
 546 59 569 64 599 73 c 1
 599 32 l 1
 536 7 481 -7 428 -7 c 0
 379 -7 354 20 354 71 c 0
 354 90 358 112 363 138 c 2
 417 409 l 1
 217 410 l 1
 180 147 l 2
 167 58 146 -15 108 -75 c 0
 51 -165 -23 -214 -84 -214 c 0
 -124 -214 -154 -187 -154 -152 c 0
 -154 -124 -139 -101 -113 -89 c 1
 -6 -146 l 1
 27 -100 42 -17 59 102 c 2
 102 408 l 1
 36 400 l 1
 36 444 l 1
 114 478 l 1
 142 638 247 734 352 734 c 0
 408 734 442 705 442 669 c 0
 442 642 423 616 389 602 c 1xec
EndSplineSet
EndChar
StartChar: fl
Encoding: 175 64258 109
Width: 629
Flags: MW
HStem: -214 68<-105 -7> -9 63<418.5 536.5> 409 58<224 352 224 352 217 352> 686 47<300 300>
VStem: -154 750
LayerCount: 2
Fore
SplineSet
553 736 m 1
 596 736 l 1
 589 702 586 682 585 677 c 2
 492 187 l 2
 485 149 481 122 481 105 c 0
 481 70 497 54 530 54 c 0
 543 54 567 59 602 70 c 1
 602 31 l 1
 529 2 476 -9 449 -9 c 0
 388 -9 359 20 359 81 c 0
 359 105 365 137 373 179 c 2
 464 650 l 1
 426 653 l 1
 381 605 l 1
 300 686 l 1
 271 651 244 577 224 467 c 1
 352 467 l 1
 352 409 l 1
 217 409 l 1
 180 147 l 2
 167 57 146 -15 108 -75 c 0
 51 -165 -24 -214 -85 -214 c 0
 -125 -214 -154 -187 -154 -152 c 0
 -154 -124 -140 -101 -114 -89 c 1
 -7 -146 l 1
 26 -100 41 -17 58 102 c 2
 102 408 l 1
 36 400 l 1
 36 444 l 1
 114 478 l 1
 142 637 245 733 353 733 c 0
 390 733 416 723 433 703 c 1
 553 736 l 1
EndSplineSet
EndChar
